<?xml version="1.0" encoding="UTF-8" standalone="no"?>
<!-- Created with Inkscape (http://www.inkscape.org/) -->

<svg
   width="426.00174"
   height="181.51904"
   id="svg2"
   version="1.1"
   inkscape:version="1.2.2 (b0a8486541, 2022-12-01)"
   sodipodi:docname="logo.svg"
   xmlns:inkscape="http://www.inkscape.org/namespaces/inkscape"
   xmlns:sodipodi="http://sodipodi.sourceforge.net/DTD/sodipodi-0.dtd"
   xmlns="http://www.w3.org/2000/svg"
   xmlns:svg="http://www.w3.org/2000/svg"
   xmlns:rdf="http://www.w3.org/1999/02/22-rdf-syntax-ns#"
   xmlns:cc="http://creativecommons.org/ns#"
   xmlns:dc="http://purl.org/dc/elements/1.1/">
  <defs
     id="defs4" />
  <sodipodi:namedview
     id="base"
     pagecolor="#ffffff"
     bordercolor="#666666"
     borderopacity="1.0"
     inkscape:pageopacity="0"
     inkscape:pageshadow="2"
     inkscape:zoom="2"
     inkscape:cx="211.75"
     inkscape:cy="62"
     inkscape:document-units="px"
     inkscape:current-layer="layer10"
     showgrid="false"
     fit-margin-top="20"
     fit-margin-left="20"
     fit-margin-right="20"
     fit-margin-bottom="20"
     inkscape:window-width="3440"
     inkscape:window-height="1411"
     inkscape:window-x="1920"
     inkscape:window-y="29"
     inkscape:window-maximized="1"
     showguides="true"
     inkscape:guide-bbox="true"
     inkscape:showpageshadow="0"
     inkscape:pagecheckerboard="0"
     inkscape:deskcolor="#ffffff" />
  <metadata
     id="metadata7">
    <rdf:RDF>
      <cc:Work
         rdf:about="">
        <dc:format>image/svg+xml</dc:format>
        <dc:type
           rdf:resource="http://purl.org/dc/dcmitype/StillImage" />
      </cc:Work>
    </rdf:RDF>
  </metadata>
  <g
     inkscape:label="Logo"
     inkscape:groupmode="layer"
     id="layer1"
     transform="translate(3.000877,-1.6026639)"
     style="display:inline">
    <g
       inkscape:groupmode="layer"
       id="layer2"
       inkscape:label="Ring groß"
       style="display:inline"
       sodipodi:insensitive="true">
      <g
         inkscape:groupmode="layer"
         id="layer14"
         inkscape:label="outer - Ring groß"
         style="display:inline">
        <path
           sodipodi:type="inkscape:offset"
           inkscape:radius="1.2649759"
           inkscape:original="M 209.6875 -410.125 C 194.67091 -409.93165 177.30377 -407.05421 159.46875 -401.46875 C 134.98587 -393.8965 110.33654 -381.72336 91.125 -367.75 C 125.37517 -388.19618 169.43349 -401.67731 201.53125 -401.21875 C 232.08912 -401.10395 251.14057 -388.89971 249.46875 -369.875 C 249.04727 -363.29228 246.36892 -356.04443 241.5 -348.46875 C 261.6498 -370.55631 263.58913 -392.29141 245.78125 -402.6875 C 237.36846 -407.83251 224.70409 -410.31835 209.6875 -410.125 z M 110.84375 -366.875 C 92.66204 -360.19987 75.00693 -348.47354 67.65625 -337.53125 C 58.30725 -324.20707 61.68689 -312.96429 73.1875 -307.28125 C 73.55848 -307.09792 73.95602 -306.92167 74.34375 -306.75 C 80.53182 -303.92752 88.76991 -302.45002 98.46875 -302.5625 C 75.29626 -304.89957 63.2153 -317.8699 73.03125 -335.90625 C 78.82679 -346.52609 93.20653 -358.5146 110.84375 -366.875 z M 64.3125 -354.15625 C 40.56063 -334.9347 30.26699 -313.3223 39.375 -300.28125 C 41.7227 -296.76718 45.32293 -293.80258 50 -291.53125 C 50.31182 -291.37983 50.61622 -291.23902 50.9375 -291.09375 C 70.85927 -281.65901 111.3423 -286.58302 147.78125 -302.84375 C 152.65013 -304.98776 157.36715 -307.2808 162.03125 -309.75 C 127.70061 -294.9946 90.16162 -289.31146 68.15625 -295.9375 C 46.04109 -302.16096 39.94079 -319.74114 53.21875 -340.25 C 56.06996 -344.8275 59.84416 -349.50845 64.3125 -354.15625 z "
           style="fill:#ffffff;fill-opacity:1;fill-rule:nonzero;stroke:none;display:inline"
           id="path5448"
           d="m 209.65625,-411.375 c -15.16559,0.19527 -32.62222,3.06908 -50.5625,8.6875 -24.61952,7.61451 -49.37359,19.8357 -68.71875,33.90625 a 1.2740844,1.2740844 0 0 0 1.40625,2.125 c 34.05034,-20.32689 77.99161,-33.76577 109.71875,-33.3125 a 1.2651024,1.2651024 0 0 0 0.0312,0 c 15.11152,0.0568 27.29713,3.15501 35.375,8.40625 8.07787,5.25124 12.10967,12.49105 11.3125,21.5625 a 1.2651024,1.2651024 0 0 0 0,0.0312 c -0.40343,6.30078 -2.99666,13.36803 -7.78125,20.8125 a 1.2651024,1.2651024 0 0 0 2,1.53125 c 10.20052,-11.18148 15.87662,-22.3178 16.6875,-32.21875 0.81021,-9.89276 -3.4507,-18.53501 -12.6875,-23.9375 -0.008,-0.005 -0.0236,0.005 -0.0312,0 -8.73969,-5.3355 -21.59795,-7.78884 -36.75,-7.59375 z m -99.0625,43.25 a 1.2651024,1.2651024 0 0 0 -0.1875,0.0625 c -18.382939,6.74901 -36.172274,18.43919 -43.8125,29.8125 l 0.03125,0 c -4.811748,6.8577 -6.455609,13.35494 -5.25,18.96875 1.205609,5.61381 5.246795,10.15851 11.25,13.125 0.395534,0.19546 0.806592,0.39385 1.1875,0.5625 0.0082,0.004 0.02305,-0.004 0.03125,0 6.418828,2.92151 14.802462,4.39516 24.625,4.28125 a 1.2651024,1.2651024 0 0 0 0.125,-2.5 c -11.375623,-1.14729 -19.845243,-4.94494 -24.21875,-10.34375 -4.373507,-5.39881 -4.961707,-12.44129 -0.21875,-21.15625 5.565823,-10.1989 19.764002,-22.13235 37.21875,-30.40625 a 1.2651024,1.2651024 0 0 0 -0.78125,-2.40625 z m -46.5,12.71875 a 1.2651024,1.2651024 0 0 0 -0.5625,0.28125 c -11.986692,9.70041 -20.636064,20.0024 -25.15625,29.6875 -4.512519,9.66867 -4.906368,18.8751 -0.0625,25.84375 0.0082,0.0118 0.02299,0.0194 0.03125,0.0312 2.497247,3.72147 6.272552,6.81493 11.09375,9.15625 0.325614,0.15812 0.64117,0.32063 0.96875,0.46875 10.33738,4.89567 25.598082,5.97653 42.90625,3.875 17.30817,-2.10153 36.63347,-7.44296 54.96875,-15.625 4.89755,-2.15663 9.65417,-4.45481 14.34375,-6.9375 a 1.2651024,1.2651024 0 0 0 -1.09375,-2.28125 c -34.13155,14.66983 -71.566146,20.20395 -93,13.75 a 1.2651024,1.2651024 0 0 0 -0.03125,0 c -10.787793,-3.03581 -17.403487,-8.72887 -19.875,-16 -2.471513,-7.27113 -0.845086,-16.36442 5.65625,-26.40625 a 1.2651024,1.2651024 0 0 0 0,-0.0312 c 2.79096,-4.48077 6.516605,-9.08905 10.9375,-13.6875 a 1.2651024,1.2651024 0 0 0 -1.125,-2.125 z"
           transform="translate(125.00001,431.73813)" />
      </g>
      <g
         inkscape:groupmode="layer"
         id="layer13"
         inkscape:label="inner - Ring groß"
         style="display:inline">
        <path
           transform="translate(125.00001,431.73813)"
           id="path2999"
           style="fill:#000000;fill-opacity:1;fill-rule:nonzero;stroke:none;display:inline"
           d="m 209.6875,-410.125 c -15.01659,0.19335 -32.38373,3.07079 -50.21875,8.65625 -24.6419,7.62143 -49.48544,19.88092 -68.75,33.96875 l 0.40625,-0.25 c 34.25017,-20.44618 78.30849,-33.92731 110.40625,-33.46875 30.55787,0.1148 49.60932,12.31904 47.9375,31.34375 -0.42148,6.58272 -3.09983,13.83057 -7.96875,21.40625 20.1498,-22.08756 22.08913,-43.82266 4.28125,-54.21875 -8.41279,-5.14501 -21.07716,-7.63085 -36.09375,-7.4375 z m -98.84375,43.25 c -18.18171,6.67513 -35.83682,18.40146 -43.1875,29.34375 -9.349,13.32418 -5.96936,24.56696 5.53125,30.25 0.37098,0.18333 0.76852,0.35958 1.15625,0.53125 6.18807,2.82248 14.42616,4.29998 24.125,4.1875 -23.17249,-2.33707 -35.25345,-15.3074 -25.4375,-33.34375 5.79554,-10.61984 20.17528,-22.60835 37.8125,-30.96875 z m -46.53125,12.71875 c -23.75187,19.22155 -34.04551,40.83395 -24.9375,53.875 2.3477,3.51407 5.94793,6.47867 10.625,8.75 0.31182,0.15142 0.61622,0.29223 0.9375,0.4375 19.92177,9.43474 60.4048,4.51073 96.84375,-11.75 4.86888,-2.14401 9.5859,-4.43705 14.25,-6.90625 -34.33064,14.7554 -71.86963,20.43854 -93.875,13.8125 -22.11516,-6.22346 -28.21546,-23.80364 -14.9375,-44.3125 2.85121,-4.5775 6.62541,-9.25845 11.09375,-13.90625 z"
           inkscape:connector-curvature="0" />
      </g>
    </g>
    <g
       inkscape:groupmode="layer"
       id="layer3"
       inkscape:label="Coachbar"
       style="display:inline">
      <g
         inkscape:groupmode="layer"
         id="layer10"
         inkscape:label="outer - Coachbar"
         style="display:inline">
        <path
           inkscape:connector-curvature="0"
           id="path3007"
           d="m 178.40537,54.63391 c -0.0852,0.0122 -0.16911,0.0331 -0.25,0.0625 -0.0422,0.008 -0.0839,0.0188 -0.125,0.0312 -0.15228,0.0656 -0.29127,0.1618 -0.40625,0.28125 -0.0329,0.0295 -0.0641,0.0609 -0.0937,0.0937 -0.0231,0.0405 -0.044,0.0822 -0.0625,0.125 -0.0222,0.0303 -0.0431,0.0616 -0.0625,0.0937 -0.0717,0.14612 -0.11438,0.30635 -0.125,0.46875 -0.001,0.0312 -0.001,0.0625 0,0.0937 l 0,63.0625 c 0.002,0.0841 0.0125,0.168 0.0312,0.25 0.0141,0.0746 0.0351,0.14793 0.0625,0.21875 0.0185,0.0428 0.0394,0.0845 0.0625,0.125 0.0194,0.0322 0.0403,0.0634 0.0625,0.0937 0.0194,0.0322 0.0403,0.0634 0.0625,0.0937 0.0556,0.0689 0.11859,0.13188 0.1875,0.1875 0.0685,0.0489 0.14188,0.0908 0.21875,0.125 0.0697,0.0381 0.14308,0.0695 0.21875,0.0937 0.11091,0.0368 0.227,0.0579 0.34375,0.0625 l 15.71875,0 c 0.0422,-0.008 0.0839,-0.0188 0.125,-0.0312 0.0416,0.002 0.0834,0.002 0.125,0 0.11988,-0.0245 0.23611,-0.0668 0.34375,-0.125 0.0782,-0.044 0.15173,-0.0965 0.21875,-0.15625 0.0322,-0.0194 0.0634,-0.0403 0.0937,-0.0625 0.0597,-0.067 0.11222,-0.1405 0.15625,-0.21875 0.0489,-0.0685 0.0908,-0.14188 0.125,-0.21875 0.0465,-0.14059 0.0678,-0.2895 0.0625,-0.4375 l 0,-36.875 c -2e-5,-2.56827 0.24746,-4.31549 0.4375,-4.8125 0.19617,-0.51307 0.20357,-0.53123 0.78125,-0.53125 0.34732,10e-6 0.50705,0.0695 0.59375,0.125 0.0867,0.0555 0.14358,0.0968 0.21875,0.3125 0.14879,0.42702 0.37497,2.43624 0.375,5.40625 l 0,36.375 c 0.002,0.0841 0.0125,0.168 0.0312,0.25 0.009,0.0316 0.0196,0.063 0.0312,0.0937 0.008,0.0422 0.0187,0.0839 0.0312,0.125 0.0342,0.0769 0.0761,0.15029 0.125,0.21875 0.0685,0.10563 0.15314,0.2008 0.25,0.28125 0.0685,0.0489 0.14188,0.0908 0.21875,0.125 0.10764,0.0582 0.22387,0.10046 0.34375,0.125 0.0411,0.0125 0.0828,0.0231 0.125,0.0312 0.0312,0.001 0.0625,0.001 0.0937,0 l 15.75,0 c 0.0422,-0.008 0.0839,-0.0188 0.125,-0.0312 0.0416,0.002 0.0834,0.002 0.125,0 0.0316,-0.009 0.0629,-0.0197 0.0937,-0.0312 0.16074,-0.0526 0.31058,-0.13822 0.4375,-0.25 0.0969,-0.0805 0.18147,-0.17562 0.25,-0.28125 0.0222,-0.0303 0.0431,-0.0616 0.0625,-0.0937 0.04,-0.0797 0.0716,-0.16364 0.0937,-0.25 0.0125,-0.0411 0.023,-0.0828 0.0312,-0.125 0.0125,-0.0411 0.023,-0.0828 0.0312,-0.125 5.2e-4,-0.0208 5.2e-4,-0.0417 0,-0.0625 l 0,-35.625 c -4e-5,-4.89123 -0.20333,-8.24355 -0.6875,-10.3125 -0.50737,-2.16762 -1.9235,-4.06591 -4.03125,-5.59375 -2.16212,-1.56709 -4.78603,-2.3437 -7.75,-2.34375 -0.96808,3e-5 -1.92512,0.0797 -2.84375,0.25 -0.91863,0.17027 -1.79528,0.43974 -2.65625,0.78125 -0.86099,0.34157 -1.70473,0.77231 -2.5,1.28125 -0.0674,0.0432 -0.12053,0.1119 -0.1875,0.15625 l 0,-11.65625 c 0.002,-0.0416 0.002,-0.0834 0,-0.125 -0.0203,-0.16454 -0.0738,-0.32493 -0.15625,-0.46875 -0.0783,-0.14386 -0.18512,-0.27208 -0.3125,-0.375 -0.0303,-0.0222 -0.0616,-0.0431 -0.0937,-0.0625 -0.20124,-0.1379 -0.44357,-0.21501 -0.6875,-0.21875 l -15.71875,0 c -0.0416,-0.002 -0.0834,-0.002 -0.125,0 z m 41.75,0 c -0.17518,0.0161 -0.34681,0.0698 -0.5,0.15625 -0.0322,0.0194 -0.0635,0.0403 -0.0937,0.0625 -0.0329,0.0295 -0.0642,0.0609 -0.0937,0.0937 -0.0969,0.0804 -0.18146,0.17562 -0.25,0.28125 -0.0222,0.0303 -0.0431,0.0616 -0.0625,0.0937 -0.0231,0.0405 -0.044,0.0822 -0.0625,0.125 -0.0368,0.11091 -0.0579,0.227 -0.0625,0.34375 -0.001,0.0312 -0.001,0.0625 0,0.0937 l 0,63.0625 c -0.008,0.0831 -0.008,0.16695 0,0.25 0.009,0.0316 0.0196,0.063 0.0312,0.0937 0.0185,0.0428 0.0394,0.0845 0.0625,0.125 0.0185,0.0428 0.0394,0.0845 0.0625,0.125 0.059,0.10354 0.13293,0.19857 0.21875,0.28125 0.0296,0.0329 0.0609,0.0641 0.0937,0.0937 0.0586,0.0472 0.12141,0.0891 0.1875,0.125 0.18092,0.10011 0.38699,0.15434 0.59375,0.15625 l 14.71875,0 c 0.0422,-0.008 0.0839,-0.0188 0.125,-0.0312 0.0416,0.002 0.0834,0.002 0.125,0 0.19635,-0.0489 0.38042,-0.14635 0.53125,-0.28125 0.0969,-0.0804 0.18147,-0.17562 0.25,-0.28125 0.0222,-0.0303 0.0431,-0.0616 0.0625,-0.0937 0.04,-0.0797 0.0716,-0.16364 0.0937,-0.25 l 0.46875,-1.78125 c 0.21694,0.20133 0.40102,0.47112 0.625,0.65625 0.79746,0.65914 1.64542,1.20975 2.53125,1.65625 0.88458,0.4459 1.82499,0.77624 2.78125,1 0.95626,0.22376 1.92495,0.34375 2.9375,0.34375 1.39549,0 2.73002,-0.21311 3.96875,-0.59375 1.23873,-0.38064 2.39274,-0.95696 3.4375,-1.71875 1.02197,-0.7452 1.88345,-1.57864 2.5625,-2.5 0.67905,-0.92136 1.17446,-1.92101 1.46875,-3 0.2815,-1.03224 0.49454,-2.25796 0.625,-3.71875 0.13046,-1.46079 0.18748,-3.1396 0.1875,-5.0625 l 0,-23.3125 c -4e-5,-3.83448 -0.085,-6.26622 -0.28125,-7.625 -0.10074,-0.69722 -0.30729,-1.40889 -0.59375,-2.09375 -0.28646,-0.68486 -0.63728,-1.36075 -1.09375,-2.03125 -0.97835,-1.43681 -2.42661,-2.53063 -4.1875,-3.28125 -0.88584,-0.37753 -1.8265,-0.66001 -2.84375,-0.84375 -1.01725,-0.18374 -2.10742,-0.28122 -3.25,-0.28125 -1.01702,3e-5 -1.98143,0.10835 -2.9375,0.3125 -0.95607,0.20415 -1.89858,0.49723 -2.78125,0.90625 -0.88639,0.41079 -1.73678,0.94625 -2.53125,1.5625 -0.0114,0.009 -0.0199,0.0224 -0.0312,0.0312 l 0,-12 c -7.9e-4,-0.16033 -0.0328,-0.32044 -0.0937,-0.46875 -0.0342,-0.0769 -0.0761,-0.15029 -0.125,-0.21875 -0.0685,-0.10563 -0.15314,-0.2008 -0.25,-0.28125 -0.0303,-0.0222 -0.0616,-0.0431 -0.0937,-0.0625 -0.17492,-0.12196 -0.38151,-0.19807 -0.59375,-0.21875 -0.0312,-10e-4 -0.0625,-10e-4 -0.0937,0 l -15.71875,0 c -0.0416,-0.002 -0.0834,-0.002 -0.125,0 z m -184.4375,10.4375 c -4.30452,5e-5 -8.04832,0.9226 -11.15625,2.8125 -1.51725,0.92267 -2.80982,1.93562 -3.84375,3.03125 -1.03393,1.09563 -1.80624,2.28198 -2.3125,3.5625 -0.49278,1.24647 -0.83282,2.71068 -1.0625,4.4375 -0.22968,1.72682 -0.34375,3.70199 -0.34375,5.9375 l 0,14.6875 c 0,5.12537 0.51461,9.14335 1.6875,12.125 1.17372,2.98382 3.24886,5.35402 6.0625,7 1.43201,0.83773 3.07224,1.44092 4.9375,1.84375 1.86526,0.40283 3.95915,0.625 6.25,0.625 3.61076,0 6.70574,-0.57841 9.28125,-1.78125 1.27842,-0.59707 2.45539,-1.35766 3.5,-2.25 1.04461,-0.89234 1.95692,-1.92171 2.75,-3.09375 0.77487,-1.14519 1.4034,-2.2898 1.875,-3.4375 0.4716,-1.1477 0.78586,-2.28949 0.9375,-3.4375 0.28603,-2.16592 0.44258,-5.28365 0.46875,-9.4375 0.007,-0.38123 -0.17105,-0.76174 -0.46875,-1 -0.0405,-0.0231 -0.0822,-0.044 -0.125,-0.0625 -0.19255,-0.13232 -0.42282,-0.20908 -0.65625,-0.21875 l -14.03125,0 c -0.0422,0.008 -0.0839,0.0188 -0.125,0.0312 -0.25045,0.0218 -0.49361,0.12123 -0.6875,0.28125 -0.0322,0.0194 -0.0634,0.0403 -0.0937,0.0625 -0.0883,0.0922 -0.16236,0.19798 -0.21875,0.3125 -0.0125,0.0411 -0.0231,0.0828 -0.0312,0.125 -0.0125,0.0411 -0.0231,0.0828 -0.0312,0.125 -0.0125,0.0411 -0.0231,0.0828 -0.0312,0.125 -0.0151,0.0616 -0.0257,0.12433 -0.0312,0.1875 l 0,6.15625 c -2e-5,2.61523 -0.23611,4.40635 -0.46875,5 -0.1152,0.29395 -0.20925,0.44301 -0.34375,0.53125 -0.1345,0.0882 -0.31209,0.125 -0.65625,0.125 -0.48602,0 -0.64927,-0.0886 -0.96875,-0.71875 -0.31528,-0.62177 -0.56252,-1.82497 -0.5625,-3.5625 l 0,-24.375 c -2e-5,-2.20099 0.27698,-3.67339 0.34375,-3.8125 0.10633,-0.22152 0.10772,-0.28122 0.71875,-0.28125 0.56931,3e-5 0.55704,0.0205 0.71875,0.375 0.15424,0.33818 0.40623,1.7097 0.40625,3.71875 l 0,5.9375 c -0.002,0.0416 -0.002,0.0834 0,0.125 0.0122,0.0852 0.0331,0.16911 0.0625,0.25 0.0433,0.1583 0.11806,0.30791 0.21875,0.4375 0.0296,0.0329 0.0608,0.0641 0.0937,0.0937 0.0295,0.0329 0.0608,0.0641 0.0937,0.0937 0.0303,0.0222 0.0616,0.0431 0.0937,0.0625 0.0685,0.0489 0.14188,0.0908 0.21875,0.125 0.0411,0.0125 0.0828,0.0231 0.125,0.0312 0.082,0.0188 0.1659,0.0292 0.25,0.0312 0.0312,10e-4 0.0625,10e-4 0.0937,0 l 14.84375,0 c 0.16033,-7.9e-4 0.32044,-0.0328 0.46875,-0.0937 0.0769,-0.0342 0.15029,-0.0761 0.21875,-0.125 0.0322,-0.0194 0.0634,-0.0403 0.0937,-0.0625 0.0969,-0.0804 0.18147,-0.17562 0.25,-0.28125 0.0934,-0.14138 0.15763,-0.30195 0.1875,-0.46875 0.0168,-0.0718 0.0273,-0.1451 0.0312,-0.21875 -2e-5,-2.46845 -0.12658,-4.65067 -0.375,-6.59375 -0.24842,-1.94308 -0.63426,-3.62343 -1.15625,-5.0625 -0.53425,-1.47273 -1.34287,-2.82408 -2.40625,-4.03125 -1.06338,-1.20717 -2.38988,-2.2929 -3.9375,-3.21875 -3.12976,-1.8722 -6.87793,-2.7812 -11.15625,-2.78125 z m 39.46875,0 c -4.36755,5e-5 -8.05418,0.87181 -11,2.65625 -1.4499,0.87833 -2.72318,1.90245 -3.75,3.09375 -1.02682,1.1913 -1.80583,2.52018 -2.375,4 -1.12754,2.93165 -1.65625,6.82611 -1.65625,11.71875 l 0,13.25 c 0,4.44148 0.28393,7.79726 0.90625,10.1875 0.61301,2.35454 1.65407,4.39434 3.125,6.09375 1.5137,1.74885 3.60573,3.02481 6.1875,3.84375 1.2896,0.40907 2.71437,0.70671 4.25,0.90625 1.53563,0.19954 3.18356,0.3125 4.96875,0.3125 1.61748,0 3.14113,-0.13912 4.59375,-0.375 1.45262,-0.23588 2.84143,-0.58377 4.125,-1.0625 1.29417,-0.48269 2.48705,-1.11534 3.5625,-1.875 1.07545,-0.75966 2.03887,-1.62882 2.875,-2.65625 1.64061,-2.01603 2.73911,-4.25518 3.25,-6.625 0.50602,-2.3475 0.71871,-5.78001 0.71875,-10.46875 l 0,-12.65625 c -4e-5,-3.71793 -0.24572,-6.52556 -0.8125,-8.53125 -0.55892,-1.97753 -1.59723,-3.85913 -3.0625,-5.65625 -0.76639,-0.93987 -1.68865,-1.78701 -2.75,-2.53125 -1.06135,-0.74424 -2.25589,-1.38174 -3.59375,-1.9375 -2.72124,-1.13029 -5.9079,-1.68745 -9.5625,-1.6875 z m 40.8125,0 c -4.5951,5e-5 -8.43931,0.87554 -11.46875,2.6875 -1.46548,0.87657 -2.73365,1.82206 -3.75,2.875 -1.01635,1.05294 -1.78575,2.19853 -2.3125,3.4375 -0.51492,1.21116 -0.88322,2.6302 -1.125,4.25 -0.24178,1.6198 -0.375,3.45308 -0.375,5.5 l 0,3.46875 c 0.002,0.0841 0.0125,0.168 0.0312,0.25 0.009,0.0316 0.0196,0.063 0.0312,0.0937 0.0222,0.0864 0.0538,0.17033 0.0937,0.25 0.0458,0.0674 0.0982,0.13029 0.15625,0.1875 0.0296,0.0329 0.0608,0.0641 0.0937,0.0937 0.0296,0.0329 0.0608,0.0641 0.0937,0.0937 0.0586,0.0472 0.12141,0.0891 0.1875,0.125 0.0797,0.04 0.16364,0.0716 0.25,0.0937 0.0411,0.0125 0.0828,0.0231 0.125,0.0312 0.0616,0.0151 0.12433,0.0256 0.1875,0.0312 l 12,0 c -0.58873,0.24034 -0.859,0.39276 -1.53125,0.65625 -4.8936,1.89432 -7.9869,3.43976 -9.5625,5.25 -0.79695,0.91566 -1.35241,2.07873 -1.6875,3.53125 -0.33509,1.45252 -0.46875,3.18778 -0.46875,5.1875 l 0,4.25 c 0,1.35035 0.0969,2.59765 0.25,3.75 0.15314,1.15235 0.36505,2.21546 0.6875,3.15625 0.6449,1.88159 1.64335,3.32713 3.0625,4.28125 1.24461,0.83677 2.5853,1.4518 3.96875,1.875 1.38345,0.4232 2.81968,0.65625 4.3125,0.65625 2.28535,0 4.35633,-0.50818 6.09375,-1.5625 0.67234,-0.408 1.24217,-0.97094 1.8125,-1.53125 l 0,0.90625 c -0.002,0.0416 -0.002,0.0834 0,0.125 0.0141,0.0746 0.0351,0.14793 0.0625,0.21875 0.008,0.0422 0.0188,0.0839 0.0312,0.125 0.0185,0.0428 0.0394,0.0845 0.0625,0.125 0.0359,0.0661 0.0778,0.12893 0.125,0.1875 0.0296,0.0329 0.0608,0.0641 0.0937,0.0937 0.0572,0.058 0.12011,0.11044 0.1875,0.15625 0.14138,0.0934 0.30195,0.15763 0.46875,0.1875 0.0718,0.0168 0.1451,0.0274 0.21875,0.0312 l 15.3125,0 c 0.0422,-0.008 0.0839,-0.0188 0.125,-0.0312 0.0416,0.002 0.0834,0.002 0.125,0 0.0316,-0.009 0.063,-0.0197 0.0937,-0.0312 0.16074,-0.0526 0.31058,-0.13822 0.4375,-0.25 0.0322,-0.0194 0.0634,-0.0403 0.0937,-0.0625 0.0597,-0.067 0.11222,-0.1405 0.15625,-0.21875 0.0222,-0.0303 0.0431,-0.0616 0.0625,-0.0937 0.0757,-0.15561 0.11854,-0.32708 0.125,-0.5 0.011,-0.0205 0.0214,-0.0414 0.0312,-0.0625 l 0,-25.9375 c -4e-5,-8.56737 -0.25007,-14.17347 -0.84375,-17.15625 -0.30581,-1.53622 -0.93815,-2.95867 -1.84375,-4.25 -0.9056,-1.29133 -2.08088,-2.45763 -3.53125,-3.46875 -0.75398,-0.52559 -1.59085,-0.99073 -2.5,-1.375 -0.90915,-0.38427 -1.90566,-0.68794 -2.96875,-0.9375 -2.12618,-0.49912 -4.54669,-0.74997 -7.28125,-0.75 z m 40.125,0 c -2.15226,3e-5 -4.167,0.25239 -6.03125,0.71875 -1.86425,0.46636 -3.57104,1.1488 -5.125,2.09375 -1.51725,0.92267 -2.80982,1.93562 -3.84375,3.03125 -1.03393,1.09563 -1.80624,2.28198 -2.3125,3.5625 -0.49278,1.24647 -0.83282,2.71068 -1.0625,4.4375 -0.22968,1.72682 -0.34375,3.70199 -0.34375,5.9375 l 0,14.6875 c 0,5.12537 0.51461,9.14335 1.6875,12.125 1.17372,2.98382 3.24887,5.35402 6.0625,7 1.43201,0.83773 3.07224,1.44092 4.9375,1.84375 1.86526,0.40283 3.95915,0.625 6.25,0.625 3.61076,0 6.70574,-0.57841 9.28125,-1.78125 2.55683,-1.19413 4.66384,-2.99966 6.25,-5.34375 0.77487,-1.14519 1.4034,-2.2898 1.875,-3.4375 0.4716,-1.1477 0.78585,-2.28949 0.9375,-3.4375 0.28602,-2.16592 0.44258,-5.28365 0.46875,-9.4375 -0.006,-0.17292 -0.0493,-0.34439 -0.125,-0.5 -0.0714,-0.1914 -0.19062,-0.36477 -0.34375,-0.5 -0.0405,-0.0231 -0.0822,-0.044 -0.125,-0.0625 -0.10581,-0.0691 -0.22215,-0.12194 -0.34375,-0.15625 -0.10094,-0.034 -0.20624,-0.0551 -0.3125,-0.0625 l -14.03125,0 c -0.0841,0.002 -0.168,0.0125 -0.25,0.0312 -0.0422,0.008 -0.0839,0.0188 -0.125,0.0312 -0.0422,0.008 -0.0839,0.0188 -0.125,0.0312 -0.0769,0.0342 -0.15029,0.0761 -0.21875,0.125 -0.13859,0.0998 -0.25639,0.22828 -0.34375,0.375 -0.0825,0.14382 -0.13594,0.30421 -0.15625,0.46875 -0.0151,0.0616 -0.0256,0.12433 -0.0312,0.1875 l 0,6.15625 c -2e-5,2.61523 -0.23611,4.40635 -0.46875,5 -0.1152,0.29395 -0.20925,0.44301 -0.34375,0.53125 -0.1345,0.0882 -0.3121,0.125 -0.65625,0.125 -0.48602,0 -0.64927,-0.0886 -0.96875,-0.71875 -0.31528,-0.62177 -0.56252,-1.82497 -0.5625,-3.5625 l 0,-24.375 c -2e-5,-2.20099 0.27698,-3.67339 0.34375,-3.8125 0.10633,-0.22153 0.10772,-0.28122 0.71875,-0.28125 0.56931,3e-5 0.55704,0.0205 0.71875,0.375 0.15424,0.33818 0.40623,1.7097 0.40625,3.71875 l 0,5.9375 c -0.002,0.0416 -0.002,0.0834 0,0.125 0.0122,0.0852 0.0331,0.16911 0.0625,0.25 0.008,0.0422 0.0187,0.0839 0.0312,0.125 0.0185,0.0428 0.0394,0.0845 0.0625,0.125 0.0359,0.0661 0.0778,0.12893 0.125,0.1875 0.0296,0.0329 0.0609,0.0643 0.0937,0.0937 0.0572,0.058 0.12011,0.11044 0.1875,0.15625 0.10581,0.0691 0.22215,0.12194 0.34375,0.15625 0.082,0.0188 0.1659,0.0292 0.25,0.0312 0.0312,10e-4 0.0626,10e-4 0.0937,0 l 14.84375,0 c 0.16033,-7.9e-4 0.32044,-0.0328 0.46875,-0.0937 0.0769,-0.0342 0.15029,-0.0761 0.21875,-0.125 0.0322,-0.0194 0.0635,-0.0403 0.0937,-0.0625 0.0689,-0.0556 0.13188,-0.11859 0.1875,-0.1875 0.10069,-0.12959 0.17549,-0.2792 0.21875,-0.4375 0.0368,-0.11091 0.0579,-0.227 0.0625,-0.34375 -2e-5,-2.46845 -0.12658,-4.65067 -0.375,-6.59375 -0.24842,-1.94308 -0.63426,-3.62344 -1.15625,-5.0625 -1.06851,-2.94546 -3.2485,-5.39831 -6.34375,-7.25 -3.12976,-1.8722 -6.87792,-2.7812 -11.15625,-2.78125 z m 122.625,0 c -2.29755,3e-5 -4.39884,0.2154 -6.3125,0.65625 -1.91366,0.44085 -3.64153,1.12528 -5.15625,2.03125 -1.46548,0.87657 -2.7024,1.82206 -3.71875,2.875 -1.01635,1.05294 -1.81699,2.19853 -2.34375,3.4375 -0.51492,1.21117 -0.88323,2.6302 -1.125,4.25 -0.24177,1.6198 -0.34375,3.45309 -0.34375,5.5 l 0,3.46875 c 0.002,0.0841 0.0125,0.168 0.0312,0.25 0.009,0.0316 0.0196,0.063 0.0312,0.0937 0.0433,0.1583 0.11806,0.30791 0.21875,0.4375 0.0296,0.0329 0.0609,0.0641 0.0937,0.0937 0.0572,0.058 0.12011,0.11044 0.1875,0.15625 0.20124,0.1379 0.44357,0.21501 0.6875,0.21875 l 11.96875,0 c -0.58645,0.23936 -0.86203,0.39394 -1.53125,0.65625 -2.44681,0.94716 -4.41749,1.80645 -6,2.65625 -1.58251,0.8498 -2.7747,1.68863 -3.5625,2.59375 -1.5939,1.83132 -2.125,4.71931 -2.125,8.71875 l 0,4.25 c 0,4.05105 0.66371,7.2279 2.1875,9.375 0.50793,0.7157 1.10292,1.33544 1.8125,1.8125 1.2446,0.83677 2.55405,1.4518 3.9375,1.875 1.38345,0.4232 2.85092,0.65625 4.34375,0.65625 1.14267,0 2.2327,-0.14711 3.25,-0.40625 1.0173,-0.25914 1.94379,-0.62909 2.8125,-1.15625 0.67234,-0.408 1.24217,-0.97094 1.8125,-1.53125 l 0,0.90625 c 0.008,0.0422 0.0187,0.0839 0.0312,0.125 0.0278,0.23975 0.12679,0.4708 0.28125,0.65625 0.0296,0.0329 0.0609,0.0641 0.0937,0.0937 0.0572,0.058 0.12011,0.11044 0.1875,0.15625 0.0303,0.0222 0.0616,0.0431 0.0937,0.0625 0.0797,0.04 0.16364,0.0716 0.25,0.0937 0.10094,0.034 0.20624,0.0551 0.3125,0.0625 l 15.3125,0 c 0.0422,-0.008 0.0839,-0.0188 0.125,-0.0312 0.25045,-0.0218 0.49361,-0.12123 0.6875,-0.28125 0.0969,-0.0804 0.18147,-0.17562 0.25,-0.28125 0.0222,-0.0303 0.0431,-0.0616 0.0625,-0.0937 0.0125,-0.0411 0.023,-0.0828 0.0312,-0.125 0.0504,-0.11915 0.0822,-0.24616 0.0937,-0.375 5.2e-4,-0.0208 5.2e-4,-0.0417 0,-0.0625 l 0,-25.9375 c -2e-5,-4.28369 -0.0513,-7.84042 -0.1875,-10.6875 -0.13623,-2.84708 -0.35941,-4.97736 -0.65625,-6.46875 -0.61163,-3.07244 -2.47425,-5.69652 -5.375,-7.71875 -1.50797,-1.05118 -3.31132,-1.81338 -5.4375,-2.3125 -2.12618,-0.49912 -4.57795,-0.74997 -7.3125,-0.75 z m 48.09375,0 c -2.39225,0.1576 -4.5297,0.97956 -6.375,2.40625 -0.64695,0.50019 -1.20927,1.16752 -1.78125,1.8125 l 0.1875,-1.90625 c 0.002,-0.0416 0.002,-0.0834 0,-0.125 -0.002,-0.12721 -0.0228,-0.25415 -0.0625,-0.375 -0.008,-0.0422 -0.0187,-0.0839 -0.0312,-0.125 -0.0194,-0.0322 -0.0403,-0.0634 -0.0625,-0.0937 -0.0185,-0.0428 -0.0394,-0.0845 -0.0625,-0.125 -0.0296,-0.0329 -0.0609,-0.0641 -0.0937,-0.0937 -0.10292,-0.12738 -0.23114,-0.23424 -0.375,-0.3125 -0.0411,-0.0125 -0.0828,-0.0231 -0.125,-0.0312 -0.0405,-0.0231 -0.0822,-0.044 -0.125,-0.0625 -0.10231,-0.0235 -0.20757,-0.034 -0.3125,-0.0312 l -15.75,0 c -0.0416,-0.002 -0.0834,-0.002 -0.125,0 -0.0422,0.008 -0.0839,0.0188 -0.125,0.0312 -0.0746,0.0141 -0.14793,0.0351 -0.21875,0.0625 -0.0428,0.0185 -0.0845,0.0394 -0.125,0.0625 -0.0674,0.0458 -0.13029,0.0982 -0.1875,0.15625 -0.16444,0.13152 -0.29478,0.30531 -0.375,0.5 -0.0116,0.0308 -0.0221,0.0621 -0.0312,0.0937 -0.0368,0.11091 -0.0579,0.227 -0.0625,0.34375 l 0,51.6875 c 0.008,0.0422 0.0187,0.0839 0.0312,0.125 -0.002,0.0416 -0.002,0.0834 0,0.125 0.009,0.0316 0.0196,0.063 0.0312,0.0937 0.0185,0.0428 0.0394,0.0845 0.0625,0.125 0.008,0.0422 0.0187,0.0839 0.0312,0.125 0.0194,0.0322 0.0403,0.0634 0.0625,0.0937 0.0556,0.0689 0.11859,0.13188 0.1875,0.1875 0.0296,0.0329 0.0609,0.0641 0.0937,0.0937 0.0586,0.0472 0.12141,0.0891 0.1875,0.125 0.0405,0.0231 0.0822,0.044 0.125,0.0625 0.11915,0.0504 0.24616,0.0822 0.375,0.0937 0.0208,5.2e-4 0.0417,5.2e-4 0.0625,0 l 15.75,0 c 0.0422,-0.008 0.0839,-0.0188 0.125,-0.0312 0.0416,0.002 0.0834,0.002 0.125,0 0.20728,-0.0441 0.40289,-0.14185 0.5625,-0.28125 0.0858,-0.0827 0.15974,-0.17771 0.21875,-0.28125 0.0691,-0.10581 0.12194,-0.22215 0.15625,-0.34375 0.0125,-0.0411 0.023,-0.0828 0.0312,-0.125 0.0151,-0.0616 0.0256,-0.12433 0.0312,-0.1875 l 0,-20.40625 c -2e-5,-4.98433 0.19622,-8.2681 0.4375,-9.34375 0.11901,-0.53063 0.3189,-0.97694 0.625,-1.375 0.3061,-0.39806 0.6963,-0.74305 1.25,-1.0625 1.01643,-0.58638 2.98102,-0.99996 5.75,-1 0.16033,-7.9e-4 0.32044,-0.0328 0.46875,-0.0937 0.0769,-0.0342 0.15029,-0.0761 0.21875,-0.125 0.13554,-0.0907 0.25305,-0.20821 0.34375,-0.34375 0.0934,-0.14138 0.15763,-0.30195 0.1875,-0.46875 0.0168,-0.0718 0.0273,-0.1451 0.0312,-0.21875 l 0,-18.1875 c -0.008,-0.0422 -0.0187,-0.0839 -0.0312,-0.125 0.002,-0.0416 0.002,-0.0834 0,-0.125 -0.0245,-0.11988 -0.0668,-0.23611 -0.125,-0.34375 -0.0194,-0.0322 -0.0403,-0.0634 -0.0625,-0.0937 -0.0286,-0.0436 -0.06,-0.0853 -0.0937,-0.125 -0.0572,-0.058 -0.12011,-0.11044 -0.1875,-0.15625 -0.23464,-0.19187 -0.54091,-0.29396 -0.84375,-0.28125 z m -251.125,11.65625 c 0.62784,3e-5 0.58705,0.008 0.6875,0.25 0.0679,0.16356 0.31248,1.92831 0.3125,4.53125 l 0,23.84375 c -2e-5,2.17686 -0.2202,3.63505 -0.3125,3.84375 -0.10338,0.2337 -0.0851,0.28125 -0.71875,0.28125 -0.56935,0 -0.54466,-0.004 -0.6875,-0.34375 -0.12078,-0.28683 -0.37502,-1.8942 -0.375,-4.28125 l 0,-23.34375 c -1e-5,-1.29942 0.0528,-2.35201 0.125,-3.125 0.0722,-0.77299 0.21853,-1.27425 0.25,-1.34375 0.11773,-0.25998 0.0909,-0.31247 0.71875,-0.3125 z m 39.65625,0 c 0.56997,2e-5 0.64187,0.0575 0.875,0.53125 0.1618,0.32885 0.46873,2.08106 0.46875,4.71875 -2e-5,1.99324 -0.2452,3.33403 -0.375,3.65625 -0.0468,0.0521 -0.15272,0.1446 -0.3125,0.25 -0.31958,0.21084 -0.83719,0.48576 -1.5,0.8125 -0.0642,0.0316 -0.21409,0.0925 -0.28125,0.125 l 0,-4.96875 c -1e-5,-1.42198 0.0325,-2.56242 0.0937,-3.40625 0.0614,-0.84383 0.19071,-1.42569 0.21875,-1.5 0.0302,-0.0799 0.006,-0.0482 0.0937,-0.0937 0.0878,-0.0456 0.32121,-0.12499 0.71875,-0.125 z m 122.9375,0 c 0.64107,3e-5 0.63886,0.048 0.8125,0.46875 0.15421,0.3737 0.40622,2.12875 0.40625,4.75 l 0,21.75 c -3e-5,3.02268 -0.25635,5.05514 -0.375,5.375 -0.1424,0.38385 -0.10345,0.40625 -0.75,0.40625 -0.6227,0 -0.59393,-0.0317 -0.75,-0.40625 -0.12156,-0.29173 -0.40627,-2.1147 -0.40625,-4.84375 l 0,-22.28125 c -1e-5,-1.42011 0.0266,-2.55994 0.0937,-3.40625 0.0672,-0.84631 0.2149,-1.4435 0.25,-1.53125 0.10604,-0.26512 0.0679,-0.28122 0.71875,-0.28125 z m 39.8125,0 c 0.56996,2e-5 0.67312,0.0575 0.90625,0.53125 0.1618,0.32885 0.46873,2.08106 0.46875,4.71875 -2e-5,2.00626 -0.27732,3.34567 -0.40625,3.65625 -0.0546,0.0521 -0.15275,0.1446 -0.3125,0.25 -0.31958,0.21084 -0.80594,0.48576 -1.46875,0.8125 -0.0699,0.0344 -0.23911,0.0895 -0.3125,0.125 l 0,-4.96875 c 0,-1.42199 0.0324,-2.56242 0.0937,-3.40625 0.0614,-0.84383 0.1907,-1.42568 0.21875,-1.5 0.0302,-0.0799 0.006,-0.0482 0.0937,-0.0937 0.0878,-0.0456 0.3212,-0.12499 0.71875,-0.125 z m -161.40625,20.375 0,7.90625 c -1e-5,1.27405 -0.0249,2.29176 -0.0937,3.03125 -0.0689,0.73949 -0.22333,1.2281 -0.21875,1.21875 -0.0596,0.12183 -0.0837,0.21875 -0.8125,0.21875 -0.72592,0 -0.77665,-0.08 -0.9375,-0.4375 -0.13077,-0.29057 -0.40627,-2.03698 -0.40625,-4.65625 -2e-5,-2.2646 0.19906,-3.97132 0.53125,-5 0.14384,-0.44545 0.89426,-1.29594 1.9375,-2.28125 z m 162.78125,0 0,7.90625 c -1e-5,1.27405 -0.0561,2.29176 -0.125,3.03125 -0.0689,0.73949 -0.19208,1.2281 -0.1875,1.21875 -0.0596,0.12183 -0.0837,0.21875 -0.8125,0.21875 -0.72593,0 -0.77665,-0.08 -0.9375,-0.4375 -0.13077,-0.29058 -0.43751,-2.03697 -0.4375,-4.65625 -1e-5,-2.26461 0.23031,-3.97132 0.5625,-5 0.14404,-0.44608 0.89144,-1.29399 1.9375,-2.28125 z"
           style="font-size:medium;font-style:normal;font-variant:normal;font-weight:normal;font-stretch:normal;text-indent:0;text-align:start;text-decoration:none;line-height:normal;letter-spacing:normal;word-spacing:normal;text-transform:none;direction:ltr;block-progression:tb;writing-mode:lr-tb;text-anchor:start;baseline-shift:baseline;color:#000000;fill:#ffffff;fill-opacity:1;stroke:none;stroke-width:2.5;marker:none;visibility:visible;display:inline;overflow:visible;enable-background:accumulate;font-family:Sans;-inkscape-font-specification:Sans" />
      </g>
      <g
         inkscape:groupmode="layer"
         id="layer11"
         inkscape:label="inner - Coachbar"
         style="display:inline"
         sodipodi:insensitive="true">
        <path
           inkscape:connector-curvature="0"
           d="m 53.48972,86.7823 -14.8361,0 0,-5.95781 c -2e-5,-2.07675 -0.16876,-3.48507 -0.50621,-4.22497 -0.33751,-0.73982 -0.96054,-1.10975 -1.86912,-1.10979 -0.90862,4e-5 -1.51867,0.32454 -1.83017,0.9735 -0.31154,0.64904 -0.4673,2.10279 -0.46728,4.36126 l 0,24.37637 c -2e-5,1.84317 0.23362,3.22553 0.70092,4.1471 0.46725,0.92159 1.15519,1.38237 2.06381,1.38237 1.06433,0 1.78472,-0.48025 2.16116,-1.44078 0.3764,-0.96051 0.56461,-2.7777 0.56463,-5.45158 l 0,-6.15251 14.01836,0 c -0.026,4.12765 -0.17527,7.22337 -0.44781,9.28717 -0.27262,2.06382 -1.14227,4.17955 -2.60897,6.3472 -1.46677,2.16765 -3.38131,3.80313 -5.74364,4.90642 -2.36237,1.1033 -5.28286,1.65495 -8.76147,1.65495 -4.43916,0 -7.95673,-0.75933 -10.55271,-2.27798 -2.596,-1.51866 -4.43266,-3.64737 -5.50999,-6.38615 -1.07734,-2.73876 -1.61601,-6.62625 -1.61601,-11.66249 l 0,-14.68034 c 0,-4.38719 0.44132,-7.69707 1.32396,-9.92967 0.88263,-2.23251 2.76472,-4.22493 5.64628,-5.97727 2.88154,-1.75225 6.38613,-2.62839 10.51377,-2.62844 4.10165,5e-5 7.60623,0.8697 10.51377,2.60897 2.90748,1.73936 4.84149,3.93297 5.80204,6.58084 0.96048,2.64795 1.44074,6.39916 1.44078,11.25363 l 0,0 0,0 z m 40.2249,-1.3629 0,12.65546 c -4e-5,4.64685 -0.23367,8.05408 -0.70092,10.22172 -0.46731,2.16766 -1.46677,4.19254 -2.99837,6.07462 -1.53167,1.8821 -3.49813,3.27096 -5.89939,4.16657 -2.40132,0.89562 -5.15956,1.34343 -8.27472,1.34343 -3.47865,0 -6.4251,-0.38291 -8.83936,-1.14873 -2.41428,-0.76581 -4.28988,-1.92103 -5.62681,-3.46565 -1.33694,-1.54461 -2.29097,-3.41372 -2.86208,-5.60734 -0.57113,-2.1936 -0.85668,-5.48402 -0.85668,-9.87126 l 0,-13.23956 c 0,-4.80255 0.51919,-8.55376 1.55759,-11.25363 1.0384,-2.69979 2.90751,-4.86744 5.60735,-6.50296 2.69982,-1.63542 6.15248,-2.45316 10.35801,-2.45321 3.53052,5e-5 6.56134,0.52574 9.09246,1.57706 2.53106,1.05143 4.48454,2.42081 5.86045,4.10816 1.37584,1.68744 2.31689,3.42675 2.82314,5.21794 0.50619,1.79128 0.75929,4.51707 0.75933,8.17738 l 0,0 0,0 z M 77.98291,81.52541 c -2e-5,-2.64787 -0.1428,-4.3158 -0.42834,-5.00377 -0.28558,-0.6879 -0.89564,-1.03187 -1.83018,-1.03191 -0.93457,4e-5 -1.55761,0.34401 -1.86911,1.03191 -0.31154,0.68797 -0.4673,2.3559 -0.46728,5.00377 l 0,23.32499 c -2e-5,2.44025 0.15574,4.03029 0.46728,4.77014 0.3115,0.73987 0.92156,1.10979 1.83018,1.10979 0.93453,0 1.55108,-0.33748 1.84964,-1.01244 0.29852,-0.67495 0.44779,-2.1287 0.44781,-4.36127 l 0,-23.83121 0,0 z m 35.00696,5.7631 -14.75822,0 0,-3.46565 c 0,-3.99778 0.46079,-7.08052 1.38237,-9.24822 0.92157,-2.16761 2.77122,-4.08215 5.54893,-5.74363 2.7777,-1.66139 6.38613,-2.4921 10.82529,-2.49215 5.32176,5e-5 9.33257,0.94109 12.03243,2.82314 2.69979,1.88214 4.32229,4.19257 4.86748,6.9313 0.54512,2.73881 0.8177,8.3786 0.81774,16.91938 l 0,25.93396 -15.30337,0 0,-4.59491 c -0.96054,1.84316 -2.20013,3.22553 -3.71876,4.1471 -1.51868,0.92158 -3.32938,1.38237 -5.43212,1.38237 -2.75176,0 -5.27636,-0.77231 -7.57381,-2.31692 -2.29745,-1.54462 -3.44618,-4.92589 -3.44618,-10.14384 l 0,-4.24445 c 0,-3.86801 0.61006,-6.50294 1.83018,-7.9048 1.22011,-1.40181 4.24444,-3.03728 9.07299,-4.90642 5.16601,-2.02485 7.93074,-3.38774 8.2942,-4.08869 0.36342,-0.70089 0.54514,-2.12868 0.54516,-4.28339 -2e-5,-2.69979 -0.20121,-4.45858 -0.60357,-5.27635 -0.4024,-0.8177 -1.07087,-1.22657 -2.00541,-1.22661 -1.06437,4e-5 -1.72635,0.34401 -1.98593,1.03191 -0.25962,0.68798 -0.38942,2.47272 -0.3894,5.35423 l 0,5.41264 0,0 z m 4.98431,7.08706 c -2.51814,1.84318 -3.97838,3.38779 -4.38074,4.63385 -0.4024,1.24609 -0.60359,3.03733 -0.60357,5.3737 -2e-5,2.67389 0.17521,4.40022 0.52569,5.17901 0.35044,0.77881 1.04487,1.1682 2.08328,1.1682 0.98646,0 1.62897,-0.30503 1.92753,-0.91509 0.29852,-0.61005 0.44779,-2.21307 0.44781,-4.80908 l 0,-10.63059 z m 55.91767,-7.59327 -14.8361,0 0,-5.95781 c -2e-5,-2.07675 -0.16876,-3.48507 -0.50622,-4.22497 -0.3375,-0.73982 -0.96053,-1.10975 -1.86911,-1.10979 -0.90862,4e-5 -1.51867,0.32454 -1.83017,0.9735 -0.31154,0.64904 -0.4673,2.10279 -0.46728,4.36126 l 0,24.37637 c -2e-5,1.84317 0.23362,3.22553 0.70091,4.1471 0.46726,0.92159 1.1552,1.38237 2.06382,1.38237 1.06433,0 1.78472,-0.48025 2.16116,-1.44078 0.3764,-0.96051 0.56461,-2.7777 0.56463,-5.45158 l 0,-6.15251 14.01836,0 c -0.026,4.12765 -0.17527,7.22337 -0.44781,9.28717 -0.27262,2.06382 -1.14227,4.17955 -2.60897,6.3472 -1.46677,2.16765 -3.38131,3.80313 -5.74363,4.90642 -2.36238,1.1033 -5.28287,1.65495 -8.76148,1.65495 -4.43916,0 -7.95673,-0.75933 -10.55271,-2.27798 -2.596,-1.51866 -4.43266,-3.64737 -5.50999,-6.38615 -1.07734,-2.73876 -1.61601,-6.62625 -1.61601,-11.66249 l 0,-14.68034 c 0,-4.38719 0.44132,-7.69707 1.32396,-9.92967 0.88263,-2.23251 2.76472,-4.22493 5.64628,-5.97727 2.88154,-1.75225 6.38613,-2.62839 10.51377,-2.62844 4.10165,5e-5 7.60623,0.8697 10.51377,2.60897 2.90748,1.73936 4.84149,3.93297 5.80204,6.58084 0.96048,2.64795 1.44074,6.39916 1.44078,11.25363 l 0,0 0,0 z m 20.36556,-30.87933 0,14.17411 c 1.3499,-1.24602 2.81014,-2.18058 4.38074,-2.80367 1.57055,-0.62298 3.25145,-0.9345 5.04271,-0.93455 2.75172,5e-5 5.09461,0.70096 7.02865,2.10275 1.93398,1.40188 3.11516,3.01789 3.54353,4.84802 0.4283,1.83021 0.64247,5.17255 0.64251,10.02702 l 0,35.62999 -15.73171,0 0,-36.36985 c -3e-5,-3.01131 -0.1493,-4.94533 -0.44781,-5.80204 -0.29856,-0.85664 -0.96703,-1.28498 -2.00541,-1.28502 -0.96053,4e-5 -1.60953,0.44136 -1.94699,1.32396 -0.3375,0.88267 -0.50624,2.63497 -0.50622,5.25688 l 0,36.87607 -15.73171,0 0,-63.04367 15.73171,0 0,0 z m 41.74356,0 0,14.91397 c 1.29798,-1.50562 2.74524,-2.62839 4.3418,-3.3683 1.59651,-0.7398 3.32933,-1.10973 5.19847,-1.10978 2.15465,5e-5 4.02376,0.33753 5.60735,1.01243 1.58352,0.67501 2.79065,1.62255 3.62141,2.84261 0.83068,1.22017 1.3304,2.41432 1.49918,3.58247 0.1687,1.16824 0.25307,3.6604 0.25311,7.47646 l 0,23.28605 c -4e-5,3.79016 -0.25315,6.6133 -0.75933,8.46943 -0.50625,1.85614 -1.69392,3.46565 -3.563,4.82854 -1.86914,1.3629 -4.08871,2.04435 -6.65872,2.04435 -1.84318,0 -3.56302,-0.40238 -5.15953,-1.20714 -1.59656,-0.80475 -3.0568,-2.01189 -4.38074,-3.62141 l -1.01244,3.89399 -14.71927,0 0,-63.04367 15.73171,0 0,0 z m 4.78961,26.05078 c -3e-5,-2.67383 -0.16876,-4.41964 -0.50622,-5.23741 -0.3375,-0.8177 -0.99948,-1.22657 -1.98593,-1.22661 -0.96054,4e-5 -1.58358,0.35699 -1.86912,1.07085 -0.28558,0.71393 -0.42836,2.51166 -0.42834,5.39317 l 0,22.27361 c -2e-5,2.77773 0.16223,4.55598 0.48675,5.33477 0.32448,0.77881 0.96699,1.1682 1.92752,1.1682 0.98646,0 1.62897,-0.40237 1.92753,-1.20714 0.29852,-0.80475 0.44778,-2.73876 0.44781,-5.80204 l 0,-21.7674 0,0 z m 34.96801,5.33476 -14.75821,0 0,-3.46565 c 0,-3.99778 0.46078,-7.08052 1.38236,-9.24822 0.92158,-2.16761 2.77122,-4.08215 5.54894,-5.74363 2.7777,-1.66139 6.38612,-2.4921 10.82529,-2.49215 5.32175,5e-5 9.33256,0.94109 12.03242,2.82314 2.6998,1.88214 4.32229,4.19257 4.86749,6.9313 0.54512,2.73881 0.8177,8.3786 0.81773,16.91938 l 0,25.93396 -15.30337,0 0,-4.59491 c -0.96054,1.84316 -2.20013,3.22553 -3.71876,4.1471 -1.51867,0.92158 -3.32938,1.38237 -5.43211,1.38237 -2.75177,0 -5.27637,-0.77231 -7.57381,-2.31692 -2.29746,-1.54462 -3.44618,-4.92589 -3.44618,-10.14384 l 0,-4.24445 c 0,-3.86801 0.61005,-6.50294 1.83017,-7.9048 1.22011,-1.40181 4.24444,-3.03728 9.073,-4.90642 5.166,-2.02485 7.93073,-3.38774 8.29419,-4.08869 0.36342,-0.70089 0.54514,-2.12868 0.54516,-4.28339 -2e-5,-2.69979 -0.20121,-4.45858 -0.60357,-5.27635 -0.4024,-0.8177 -1.07087,-1.22657 -2.0054,-1.22661 -1.06438,4e-5 -1.72636,0.34401 -1.98594,1.03191 -0.25961,0.68798 -0.38941,2.47272 -0.3894,5.35423 l 0,5.41264 0,0 z m 4.98431,7.08706 c -2.51813,1.84318 -3.97838,3.38779 -4.38074,4.63385 -0.40239,1.24609 -0.60358,3.03733 -0.60357,5.3737 -1e-5,2.67389 0.17522,4.40022 0.52569,5.17901 0.35044,0.77881 1.04487,1.1682 2.08329,1.1682 0.98645,0 1.62896,-0.30503 1.92752,-0.91509 0.29852,-0.61005 0.44779,-2.21307 0.44781,-4.80908 l 0,-10.63059 z m 36.87605,-27.10216 -0.62304,6.77554 c 2.28446,-4.85445 5.59434,-7.42448 9.92968,-7.71009 l 0,18.18492 c -2.88158,4e-5 -4.99731,0.38944 -6.34721,1.1682 -1.34993,0.77883 -2.18065,1.86266 -2.49215,3.25148 -0.31154,1.38888 -0.4673,4.58844 -0.46728,9.59868 l 0,20.4045 -15.73171,0 0,-51.67323 15.73171,0 0,0 z"
           style="fill:#000000;fill-opacity:1;fill-rule:nonzero;stroke:none;display:inline"
           id="path3011" />
      </g>
    </g>
    <g
       inkscape:groupmode="layer"
       id="layer4"
       inkscape:label="Ring mittel"
       style="display:inline"
       sodipodi:insensitive="true">
      <g
         inkscape:groupmode="layer"
         id="layer8"
         inkscape:label="outer - Ring mittel"
         style="display:inline">
        <path
           sodipodi:nodetypes="cscscccscccccccscccccccccccsccsccsccscccsccscc"
           inkscape:connector-curvature="0"
           id="path3019"
           d="m 342.50001,42.61313 c -0.51602,0.0324 -0.99084,0.41869 -1.12746,0.91735 -0.13662,0.49866 0.075,1.07305 0.50246,1.3639 7.36128,5.10827 10.27041,12.39575 8.96875,21.1875 -1.30166,8.79175 -7.0077,19.05995 -17.15625,29.4375 -19.81132,20.82969 -56.22837,41.05622 -90.75,50 -7.46036,1.98656 -14.79891,3.46904 -21.84375,4.46875 -0.65454,0.049 -1.20545,0.68922 -1.15636,1.34376 0.0491,0.65453 0.68933,1.20539 1.34386,1.15624 l 0.1875,0 0.375,0 c 0.0312,10e-4 0.0625,10e-4 0.0937,0 l 0.40625,-0.0312 c 0.02,-6.1e-4 0.0425,6.2e-4 0.0625,0 29.72588,-0.92243 68.77624,-14.18554 97.375,-33.25 14.1392,-9.27127 25.43723,-19.61693 32.8125,-29.71875 7.3665,-10.08982 10.88764,-19.98483 9,-28.34375 -0.002,-0.01 0.002,-0.0215 0,-0.0312 -1.63756,-8.28666 -8.19519,-14.65268 -18.28125,-18.28125 -0.11511,-0.0414 -0.19646,-0.11556 -0.3125,-0.15625 -0.16015,-0.0544 -0.3314,-0.0758 -0.5,-0.0625 z m -44.59375,0.125 c -4.35104,0.0478 -8.95491,0.38189 -13.71875,1 -8.9594,1.1018 -18.92322,3.27723 -28.75,6.4375 -0.0195,0.006 -0.043,-0.006 -0.0625,0 -0.0318,0.0102 -0.0619,0.021 -0.0937,0.0312 -0.59039,0.20633 -0.9582,0.90569 -0.79364,1.50906 0.16456,0.60337 0.83649,1.01917 1.44989,0.89719 0.0328,-0.008 0.061,-0.0236 0.0937,-0.0312 18.13636,-4.25372 34.86817,-4.9574 47.5625,-2.53125 12.71725,2.43053 21.20717,7.92002 23.53125,15.84375 -1.3e-4,0.0104 -1.3e-4,0.0208 0,0.0312 1.53477,4.85948 0.48654,11.00523 -3.25,17.6875 -3.72354,6.65903 -10.08538,13.79373 -18.90625,20.5625 -0.0308,0.0236 -0.0629,0.0389 -0.0937,0.0625 -0.50059,0.38431 -0.62714,1.17442 -0.27162,1.69585 0.35552,0.52143 1.13726,0.69226 1.67787,0.36665 l 0.0937,-0.0625 c 0.0187,-0.0143 0.0438,-0.0169 0.0625,-0.0312 10.30772,-6.34797 18.62971,-13.51637 24.3125,-20.625 5.6736,-7.09714 8.77777,-14.15098 8.3125,-20.375 -4.3e-4,-0.0107 4.5e-4,-0.0206 0,-0.0312 -0.31071,-7.32738 -4.86034,-13.13652 -12.125,-16.90625 -7.27522,-3.77521 -17.29203,-5.66023 -29.03125,-5.53125 z"
           style="font-size:medium;font-style:normal;font-variant:normal;font-weight:normal;font-stretch:normal;text-indent:0;text-align:start;text-decoration:none;line-height:normal;letter-spacing:normal;word-spacing:normal;text-transform:none;direction:ltr;block-progression:tb;writing-mode:lr-tb;text-anchor:start;baseline-shift:baseline;color:#000000;fill:#ffffff;fill-opacity:1;stroke:none;stroke-width:2.5;marker:none;visibility:visible;display:inline;overflow:visible;enable-background:accumulate;font-family:Sans;-inkscape-font-specification:Sans" />
      </g>
      <g
         inkscape:groupmode="layer"
         id="layer9"
         inkscape:label="inner - Ring mittel"
         style="display:inline">
        <path
           inkscape:connector-curvature="0"
           d="m 342.59376,43.86313 c 15.40691,10.69143 12.54532,31.52234 -8,52.53125 -20.05824,21.0893 -56.58752,41.33919 -91.34375,50.34375 -7.50717,1.99902 -14.87276,3.49303 -21.96875,4.5 l 0.5625,0 0.46875,-0.0312 c 29.39318,-0.8961 68.3794,-14.09806 96.78125,-33.03125 28.07475,-18.40901 44.84041,-41.13392 41.28125,-56.7813 -1.54846,-7.89563 -7.76149,-14.01786 -17.78125,-17.53125 z m -44.6875,0.125 c -4.29472,0.0472 -8.84165,0.38747 -13.5625,1 -8.92203,1.0972 -18.88949,3.24415 -28.6875,6.40625 36.62028,-8.61242 67.63755,-2.95452 72.65625,14.15625 3.34793,10.60041 -4.73701,25.94507 -22.6875,39.6875 l 0.15625,-0.0937 C 326.19174,92.57472 338.69201,76.74508 337.81251,65.26938 337.254,51.54371 321.09773,43.73333 297.90626,43.98813 z"
           style="fill:#000000;fill-opacity:1;fill-rule:nonzero;stroke:none;display:inline"
           id="path3023" />
      </g>
    </g>
    <g
       inkscape:groupmode="layer"
       id="layer5"
       inkscape:label="sys.-Lös."
       style="display:inline"
       sodipodi:insensitive="true">
      <g
         inkscape:groupmode="layer"
         id="layer6"
         inkscape:label="outer - sys.-Lös."
         style="display:inline">
        <path
           inkscape:connector-curvature="0"
           id="path3175"
           d="m 309.78037,135.94641 a 1.250125,1.250125 0 0 0 -0.125,0.0312 1.250125,1.250125 0 0 0 -0.25,0.0625 1.250125,1.250125 0 0 0 -0.3125,0.21875 1.250125,1.250125 0 0 0 -0.1875,0.15625 1.250125,1.250125 0 0 0 -0.0625,0.125 1.250125,1.250125 0 0 0 -0.0625,0.0937 1.250125,1.250125 0 0 0 -0.0937,0.21875 1.250125,1.250125 0 0 0 -0.0312,0.25 1.250125,1.250125 0 0 0 0,0.0937 l 0,3.375 a 1.250125,1.250125 0 0 0 0,0.125 1.250125,1.250125 0 0 0 0.0312,0.125 1.250125,1.250125 0 0 0 0.1875,0.4375 1.250125,1.250125 0 0 0 0.0625,0.125 1.250125,1.250125 0 0 0 0.1875,0.15625 1.250125,1.250125 0 0 0 0.0937,0.0625 1.250125,1.250125 0 0 0 0.21875,0.125 c -0.73231,0.60714 -1.31878,1.34133 -1.65625,2.21875 -0.43419,1.12888 -0.59375,2.50164 -0.59375,4.1875 l 0,4.40625 c 0,0.38184 0.082,0.56767 0.0937,0.90625 l -1.9375,0 0,-15.5 a 1.250125,1.250125 0 0 0 -0.0312,-0.25 1.250125,1.250125 0 0 0 -0.0312,-0.125 1.250125,1.250125 0 0 0 -0.0312,-0.0937 1.250125,1.250125 0 0 0 -0.0625,-0.125 1.250125,1.250125 0 0 0 -0.0625,-0.0937 1.250125,1.250125 0 0 0 -0.25,-0.28125 1.250125,1.250125 0 0 0 -0.21875,-0.15625 1.250125,1.250125 0 0 0 -0.0937,-0.0312 1.250125,1.250125 0 0 0 -0.375,-0.0937 1.250125,1.250125 0 0 0 -0.0937,0 l -5.4375,0 a 1.250125,1.250125 0 0 0 -0.71875,0.21875 1.250125,1.250125 0 0 0 -0.0937,0.0937 1.250125,1.250125 0 0 0 -0.34375,0.5 1.250125,1.250125 0 0 0 -0.0937,0.34375 1.250125,1.250125 0 0 0 0,0.0937 l 0,20.9375 a 1.250125,1.250125 0 0 0 0.0937,0.5 1.250125,1.250125 0 0 0 0.0625,0.125 1.250125,1.250125 0 0 0 0.21875,0.28125 1.250125,1.250125 0 0 0 0.1875,0.15625 1.250125,1.250125 0 0 0 0.21875,0.125 1.250125,1.250125 0 0 0 0.125,0.0312 1.250125,1.250125 0 0 0 0.34375,0.0312 l 8.75,0 a 1.250125,1.250125 0 0 0 0.5,-0.0937 1.250125,1.250125 0 0 0 0.0937,-0.0312 1.250125,1.250125 0 0 0 0.125,-0.0937 1.250125,1.250125 0 0 0 0.0937,-0.0625 1.250125,1.250125 0 0 0 0.1875,-0.1875 1.250125,1.250125 0 0 0 0.0625,-0.0937 1.250125,1.250125 0 0 0 0.0625,-0.0937 1.250125,1.250125 0 0 0 0.125,-0.5 1.250125,1.250125 0 0 0 0,-0.0937 l 0,-0.5 c 0.0293,0.0357 0.0322,0.09 0.0625,0.125 0.621,0.71747 1.4678,1.19241 2.4375,1.5 0.96714,0.30679 2.0649,0.4375 3.3125,0.4375 1.1549,0 2.22378,-0.14056 3.1875,-0.5 0.98497,-0.36737 1.85048,-0.98313 2.5,-1.78125 0.46498,-0.57138 0.70322,-1.23653 0.9375,-1.90625 0.097,0.37352 0.056,0.89318 0.21875,1.21875 0.50909,1.01819 1.43078,1.75391 2.5625,2.25 1.14187,0.50055 2.44799,0.71875 3.90625,0.71875 1.33239,0 2.54306,-0.21282 3.59375,-0.6875 0.52651,-0.23787 0.99611,-0.53474 1.40625,-0.90625 0.39918,-0.36158 0.75181,-0.7747 1,-1.25 0.0851,0.22615 0.10323,0.47267 0.21875,0.6875 0.36943,0.68701 0.95838,1.22155 1.65625,1.59375 0.74908,0.39952 1.59978,0.5625 2.53125,0.5625 0.83055,0 1.63433,-0.16485 2.34375,-0.53125 a 1.250125,1.250125 0 0 0 0.21875,0.125 1.250125,1.250125 0 0 0 0.125,0.0312 1.250125,1.250125 0 0 0 0.34375,0.0625 1.250125,1.250125 0 0 0 0.0625,0 l 5.3125,0 a 1.250125,1.250125 0 0 0 0.125,0 1.250125,1.250125 0 0 0 0.125,0 1.250125,1.250125 0 0 0 0.25,-0.0937 1.250125,1.250125 0 0 0 0.3125,-0.1875 1.250125,1.250125 0 0 0 0.125,-0.15625 1.250125,1.250125 0 0 0 0.1875,0.1875 1.250125,1.250125 0 0 0 0.0937,0.0625 1.250125,1.250125 0 0 0 0.21875,0.125 1.250125,1.250125 0 0 0 0.46875,0.0625 l 5.21875,0 a 1.250125,1.250125 0 0 0 0.125,0 1.250125,1.250125 0 0 0 0.125,0 1.250125,1.250125 0 0 0 0.25,-0.0937 1.250125,1.250125 0 0 0 0.0937,-0.0312 1.250125,1.250125 0 0 0 0.125,-0.0937 1.250125,1.250125 0 0 0 0.0937,-0.0625 1.250125,1.250125 0 0 0 0.0312,0.0312 1.250125,1.250125 0 0 0 0.3125,0.1875 1.250125,1.250125 0 0 0 0.375,0.0625 1.250125,1.250125 0 0 0 0.0625,0 l 5.25,0 a 1.250125,1.250125 0 0 0 0.46875,-0.0937 1.250125,1.250125 0 0 0 0.21875,-0.125 1.250125,1.250125 0 0 0 0.15625,-0.125 c 0.35171,0.97571 0.87271,1.82137 1.75,2.3125 0.63243,0.35406 1.35347,0.61807 2.125,0.78125 0.77153,0.16318 1.5969,0.21874 2.5,0.21875 1.44847,-1e-5 2.705,-0.16211 3.78125,-0.53125 1.05497,-0.36185 1.95576,-0.90865 2.625,-1.6875 0.59863,-0.6967 1.02482,-1.44481 1.15625,-2.28125 0.0624,-0.39724 0.0745,-1.30439 0.0937,-1.96875 0.23756,0.55194 0.44703,1.12424 0.84375,1.59375 0.63245,0.74849 1.47048,1.27936 2.46875,1.65625 1.01358,0.38268 2.15044,0.5625 3.375,0.5625 1.25699,0 2.3798,-0.14938 3.34375,-0.5625 0.94174,-0.40361 1.72635,-1.06265 2.34375,-1.875 0.29507,-0.38826 0.42498,-0.7894 0.625,-1.1875 l 0,2.0625 a 1.250125,1.250125 0 0 0 0.15625,0.625 1.250125,1.250125 0 0 0 0.21875,0.28125 1.250125,1.250125 0 0 0 0.21875,0.15625 1.250125,1.250125 0 0 0 0.3125,0.15625 1.250125,1.250125 0 0 0 0.34375,0.0312 l 5.21875,0 a 1.250125,1.250125 0 0 0 0.125,0 1.250125,1.250125 0 0 0 0.375,-0.0937 1.250125,1.250125 0 0 0 0.125,-0.0312 1.250125,1.250125 0 0 0 0.0937,-0.0937 1.250125,1.250125 0 0 0 0.0937,-0.0625 1.250125,1.250125 0 0 0 0.125,0.0937 1.250125,1.250125 0 0 0 0.21875,0.125 1.250125,1.250125 0 0 0 0.25,0.0625 1.250125,1.250125 0 0 0 0.21875,0 l 5.21875,0 a 1.250125,1.250125 0 0 0 0.125,0 1.250125,1.250125 0 0 0 0.375,-0.0937 1.250125,1.250125 0 0 0 0.0937,-0.0312 1.250125,1.250125 0 0 0 0.125,-0.0937 1.250125,1.250125 0 0 0 0.25,-0.25 1.250125,1.250125 0 0 0 0.1875,-0.3125 1.250125,1.250125 0 0 0 0.0625,-0.25 1.250125,1.250125 0 0 0 0.0312,-0.21875 l 0,-12.03125 c -2e-5,-1.54638 -0.0598,-2.63158 -0.28125,-3.5 -0.23334,-0.91482 -0.79586,-1.7433 -1.5625,-2.3125 -0.82161,-0.60994 -1.84411,-0.87499 -2.9375,-0.875 -0.84448,1e-5 -1.65608,0.24494 -2.375,0.625 a 1.250125,1.250125 0 0 0 -0.3125,-0.1875 1.250125,1.250125 0 0 0 -0.125,-0.0625 1.250125,1.250125 0 0 0 -0.25,-0.0625 1.250125,1.250125 0 0 0 -0.15625,0 l -5.3125,0 a 1.250125,1.250125 0 0 0 -0.125,0 1.250125,1.250125 0 0 0 -0.125,0.0312 1.250125,1.250125 0 0 0 -0.34375,0.125 1.250125,1.250125 0 0 0 -0.375,0.3125 1.250125,1.250125 0 0 0 -0.0937,0.0937 1.250125,1.250125 0 0 0 -0.0937,0.25 1.250125,1.250125 0 0 0 -0.0625,0.21875 1.250125,1.250125 0 0 0 -0.0312,0.125 1.250125,1.250125 0 0 0 0,0.0937 l 0,2.0625 c -0.23701,-0.50677 -0.52976,-0.99046 -0.90625,-1.40625 -0.42719,-0.47179 -0.92564,-0.88347 -1.5,-1.21875 -1.19418,-0.69702 -2.65676,-0.99999 -4.28125,-1 -1.35937,10e-6 -2.60215,0.25422 -3.71875,0.8125 -0.56876,0.28439 -1.09742,0.65952 -1.53125,1.09375 -0.40725,0.40763 -0.74336,0.88736 -1,1.40625 l 0,-1.75 a 1.250125,1.250125 0 0 0 -0.0312,-0.25 1.250125,1.250125 0 0 0 -0.0312,-0.125 1.250125,1.250125 0 0 0 -0.0312,-0.125 1.250125,1.250125 0 0 0 -0.125,-0.21875 1.250125,1.250125 0 0 0 -0.15625,-0.1875 1.250125,1.250125 0 0 0 -0.21875,-0.15625 1.250125,1.250125 0 0 0 -0.0937,-0.0625 1.250125,1.250125 0 0 0 -0.125,-0.0312 1.250125,1.250125 0 0 0 -0.125,-0.0625 1.250125,1.250125 0 0 0 -0.21875,-0.0312 1.250125,1.250125 0 0 0 -0.0937,0 l -4.875,0 a 1.250125,1.250125 0 0 0 -0.125,0 1.250125,1.250125 0 0 0 -0.25,0.0625 1.250125,1.250125 0 0 0 -0.0937,0.0312 1.250125,1.250125 0 0 0 -0.125,0.0625 1.250125,1.250125 0 0 0 -0.0937,0.0625 1.250125,1.250125 0 0 0 -0.21875,0.15625 1.250125,1.250125 0 0 0 -0.0625,0.0937 c -0.10753,-0.0639 -0.16921,-0.19442 -0.28125,-0.25 -0.71977,-0.35698 -1.51823,-0.53124 -2.34375,-0.53125 -0.7239,10e-6 -1.43856,0.12193 -2.0625,0.375 -0.62394,0.25307 -1.16816,0.6368 -1.59375,1.15625 -0.34725,0.42386 -0.53825,0.96158 -0.71875,1.5 -0.26017,-0.83474 -0.72565,-1.62773 -1.4375,-2.15625 a 1.250125,1.250125 0 0 0 -0.0312,0 c -0.82161,-0.60994 -1.84411,-0.87499 -2.9375,-0.875 -0.84385,10e-6 -1.62522,0.24552 -2.34375,0.625 a 1.250125,1.250125 0 0 0 -0.3125,-0.1875 1.250125,1.250125 0 0 0 -0.125,-0.0625 1.250125,1.250125 0 0 0 -0.25,-0.0625 1.250125,1.250125 0 0 0 -0.15625,0 l -5.3125,0 a 1.250125,1.250125 0 0 0 -0.25,0.0312 1.250125,1.250125 0 0 0 -0.125,0.0312 1.250125,1.250125 0 0 0 -0.125,0.0312 1.250125,1.250125 0 0 0 -0.21875,0.125 1.250125,1.250125 0 0 0 -0.1875,0.15625 1.250125,1.250125 0 0 0 -0.0312,0.0625 1.250125,1.250125 0 0 0 -0.0937,-0.0937 1.250125,1.250125 0 0 0 -0.0937,-0.0625 1.250125,1.250125 0 0 0 -0.0937,-0.0937 1.250125,1.250125 0 0 0 -0.125,-0.0625 1.250125,1.250125 0 0 0 -0.21875,-0.0937 1.250125,1.250125 0 0 0 -0.125,0 1.250125,1.250125 0 0 0 -0.21875,-0.0312 l -5.21875,0 a 1.250125,1.250125 0 0 0 -0.5,0.0937 1.250125,1.250125 0 0 0 -0.3125,0.1875 1.250125,1.250125 0 0 0 -0.125,-0.0937 1.250125,1.250125 0 0 0 -0.34375,-0.15625 1.250125,1.250125 0 0 0 -0.0937,0 1.250125,1.250125 0 0 0 -0.21875,-0.0312 l -5.25,0 a 1.250125,1.250125 0 0 0 -0.21875,0.0312 1.250125,1.250125 0 0 0 -0.125,0.0312 1.250125,1.250125 0 0 0 -0.125,0.0312 1.250125,1.250125 0 0 0 -0.5,0.375 1.250125,1.250125 0 0 0 -0.125,0.21875 1.250125,1.250125 0 0 0 -0.0625,0.125 1.250125,1.250125 0 0 0 -0.0625,0.21875 1.250125,1.250125 0 0 0 0,0.125 1.250125,1.250125 0 0 0 -0.0312,0.0937 l 0,1.21875 c -0.16377,-0.25313 -0.22312,-0.54303 -0.4375,-0.78125 -0.60155,-0.66835 -1.40707,-1.16075 -2.34375,-1.5 -0.97687,-0.35376 -2.0994,-0.49999 -3.34375,-0.5 -1.2757,1e-5 -2.42331,0.19852 -3.46875,0.625 -1.05896,0.43204 -1.94728,1.12511 -2.46875,2.0625 -0.15777,0.28362 -0.24543,0.61687 -0.34375,0.9375 -0.21409,-0.43121 -0.36819,-0.88963 -0.6875,-1.28125 -0.25354,-0.31092 -0.67572,-0.46926 -1,-0.71875 a 1.250125,1.250125 0 0 0 0.21875,-0.0625 1.250125,1.250125 0 0 0 0.21875,-0.125 1.250125,1.250125 0 0 0 0.28125,-0.25 1.250125,1.250125 0 0 0 0.125,-0.21875 1.250125,1.250125 0 0 0 0.15625,-0.46875 1.250125,1.250125 0 0 0 0,-0.0937 l 0,-3.375 a 1.250125,1.250125 0 0 0 -0.21875,-0.6875 1.250125,1.250125 0 0 0 -0.15625,-0.21875 1.250125,1.250125 0 0 0 -0.0937,-0.0625 1.250125,1.250125 0 0 0 -0.34375,-0.1875 1.250125,1.250125 0 0 0 -0.125,-0.0312 1.250125,1.250125 0 0 0 -0.3125,-0.0625 l -3.375,0 a 1.250125,1.250125 0 0 0 -0.5,0.0937 1.250125,1.250125 0 0 0 -0.3125,0.21875 1.250125,1.250125 0 0 0 -0.0937,0.0625 1.250125,1.250125 0 0 0 -0.0937,0.0937 1.250125,1.250125 0 0 0 -0.0625,0.125 1.250125,1.250125 0 0 0 -0.0625,0.0937 1.250125,1.250125 0 0 0 -0.0312,0.0312 1.250125,1.250125 0 0 0 -0.0312,-0.0625 1.250125,1.250125 0 0 0 -0.15625,-0.21875 1.250125,1.250125 0 0 0 -0.0625,-0.0937 1.250125,1.250125 0 0 0 -0.875,-0.34375 l -3.375,0 a 1.250125,1.250125 0 0 0 -0.125,0 z m -76.3125,0.75 a 1.250125,1.250125 0 0 0 -0.25,0.0625 1.250125,1.250125 0 0 0 -0.0937,0.0312 1.250125,1.250125 0 0 0 -0.125,0.0625 1.250125,1.250125 0 0 0 -0.21875,0.15625 1.250125,1.250125 0 0 0 -0.15625,0.15625 1.250125,1.250125 0 0 0 -0.0937,0.125 1.250125,1.250125 0 0 0 -0.0937,0.21875 1.250125,1.250125 0 0 0 -0.0625,0.21875 1.250125,1.250125 0 0 0 -0.0312,0.21875 l 0,2.71875 a 1.250125,1.250125 0 0 0 0,0.125 1.250125,1.250125 0 0 0 0.0312,0.125 1.250125,1.250125 0 0 0 0.0312,0.125 1.250125,1.250125 0 0 0 0.0625,0.15625 1.250125,1.250125 0 0 0 -0.0312,0.0937 1.250125,1.250125 0 0 0 -0.0312,0.0937 1.250125,1.250125 0 0 0 -0.0312,0.125 1.250125,1.250125 0 0 0 -0.0312,0.21875 l 0,1.03125 c -0.29884,-0.63156 -0.61176,-1.26099 -1.1875,-1.6875 -0.82661,-0.61226 -1.84679,-0.90624 -2.9375,-0.90625 -0.87314,1e-5 -1.7256,0.22083 -2.46875,0.65625 -0.3395,0.19893 -0.58247,0.56822 -0.875,0.84375 -0.28252,-0.26209 -0.4866,-0.62166 -0.8125,-0.8125 -0.74585,-0.43677 -1.57716,-0.68749 -2.46875,-0.6875 -0.87011,1e-5 -1.69778,0.21929 -2.4375,0.625 a 1.250125,1.250125 0 0 0 -0.0937,-0.0625 1.250125,1.250125 0 0 0 -0.125,-0.0937 1.250125,1.250125 0 0 0 -0.0937,-0.0312 1.250125,1.250125 0 0 0 -0.125,-0.0625 1.250125,1.250125 0 0 0 -0.40625,-0.0625 l -5.15625,0 a 1.250125,1.250125 0 0 0 -0.25,0.0312 1.250125,1.250125 0 0 0 -0.25,0.0625 1.250125,1.250125 0 0 0 -0.0937,0.0625 1.250125,1.250125 0 0 0 -0.21875,0.125 1.250125,1.250125 0 0 0 -0.0937,0.0937 1.250125,1.250125 0 0 0 -0.15625,0.1875 1.250125,1.250125 0 0 0 -0.15625,0.34375 1.250125,1.250125 0 0 0 -0.0312,0.34375 l 0,2.09375 c -0.23904,-0.52147 -0.52042,-1.01139 -0.90625,-1.4375 -0.42719,-0.47179 -0.95689,-0.88347 -1.53125,-1.21875 -1.19418,-0.69703 -2.62552,-0.99999 -4.25,-1 -1.35937,1e-5 -2.6334,0.25423 -3.75,0.8125 -0.56876,0.28439 -1.06618,0.65952 -1.5,1.09375 -0.11661,0.11672 -0.17609,0.27982 -0.28125,0.40625 l 0,-0.34375 a 1.250125,1.250125 0 0 0 0,-0.125 1.250125,1.250125 0 0 0 -0.0312,-0.125 1.250125,1.250125 0 0 0 -0.0625,-0.21875 1.250125,1.250125 0 0 0 -0.1875,-0.3125 1.250125,1.250125 0 0 0 -0.0937,-0.0937 1.250125,1.250125 0 0 0 -0.875,-0.375 l -0.15625,0 0,-1.4375 a 1.250125,1.250125 0 0 0 0,-0.125 1.250125,1.250125 0 0 0 -0.0312,-0.125 1.250125,1.250125 0 0 0 -0.125,-0.34375 1.250125,1.250125 0 0 0 -0.0625,-0.125 1.250125,1.250125 0 0 0 -0.0625,-0.0937 1.250125,1.250125 0 0 0 -0.1875,-0.1875 1.250125,1.250125 0 0 0 -0.0937,-0.0625 1.250125,1.250125 0 0 0 -0.46875,-0.1875 1.250125,1.250125 0 0 0 -0.21875,0 l -5.25,0 a 1.250125,1.250125 0 0 0 -0.125,0 1.250125,1.250125 0 0 0 -0.21875,0.0625 1.250125,1.250125 0 0 0 -0.125,0.0312 1.250125,1.250125 0 0 0 -0.125,0.0625 1.250125,1.250125 0 0 0 -0.1875,0.125 1.250125,1.250125 0 0 0 -0.0937,0.0937 1.250125,1.250125 0 0 0 -0.0937,0.0937 1.250125,1.250125 0 0 0 -0.25,0.5625 1.250125,1.250125 0 0 0 -0.0312,0.21875 l 0,1.4375 a 1.250125,1.250125 0 0 0 -0.46875,0.15625 1.250125,1.250125 0 0 0 -0.28125,0.21875 1.250125,1.250125 0 0 0 -0.0937,0.0937 1.250125,1.250125 0 0 0 -0.0625,0.125 1.250125,1.250125 0 0 0 -0.0625,0.0937 1.250125,1.250125 0 0 0 -0.0625,0.125 1.250125,1.250125 0 0 0 -0.0625,0.21875 1.250125,1.250125 0 0 0 0,0.0312 c -0.56558,-0.53234 -1.22285,-0.98846 -2.03125,-1.28125 -0.97687,-0.35376 -2.0994,-0.49999 -3.34375,-0.5 -1.2757,1e-5 -2.45455,0.19852 -3.5,0.625 -0.47065,0.19202 -0.86505,0.45752 -1.25,0.75 a 1.250125,1.250125 0 0 0 0,-0.0312 1.250125,1.250125 0 0 0 -0.125,-0.34375 1.250125,1.250125 0 0 0 -0.875,-0.65625 1.250125,1.250125 0 0 0 -0.21875,-0.0312 l -4.75,0 a 1.250125,1.250125 0 0 0 -0.375,0.0625 1.250125,1.250125 0 0 0 -0.125,0.0312 1.250125,1.250125 0 0 0 -0.0937,0.0625 1.250125,1.250125 0 0 0 -0.21875,0.125 1.250125,1.250125 0 0 0 -0.0937,0.0937 1.250125,1.250125 0 0 0 -0.0625,0.0937 1.250125,1.250125 0 0 0 -0.0937,0.0937 1.250125,1.250125 0 0 0 -0.0625,0.125 1.250125,1.250125 0 0 0 -0.0937,0.21875 1.250125,1.250125 0 0 0 -0.0312,0.25 l 0,0.21875 -0.0625,-0.3125 a 1.250125,1.250125 0 0 0 -0.0937,-0.34375 1.250125,1.250125 0 0 0 -0.625,-0.59375 1.250125,1.250125 0 0 0 -0.0937,-0.0625 1.250125,1.250125 0 0 0 -0.40625,-0.0625 l -4.75,0 a 1.250125,1.250125 0 0 0 -0.25,0.0312 1.250125,1.250125 0 0 0 -0.125,0.0312 1.250125,1.250125 0 0 0 -0.34375,0.15625 1.250125,1.250125 0 0 0 -0.53125,0.8125 1.250125,1.250125 0 0 0 0,0.28125 c -0.52635,-0.43788 -1.07208,-0.86815 -1.78125,-1.125 -0.97687,-0.35376 -2.0994,-0.49999 -3.34375,-0.5 -1.2757,1e-5 -2.45456,0.19852 -3.5,0.625 -0.52949,0.21602 -1.01907,0.50066 -1.4375,0.84375 -0.41843,0.34309 -0.77052,0.75006 -1.03125,1.21875 -0.27175,0.48851 -0.42392,1.02187 -0.53125,1.625 -0.10733,0.60313 -0.15625,1.25922 -0.15625,2 0,1.1112 0.19234,2.15839 0.625,3.0625 0.28505,0.59569 0.72524,1.06983 1.28125,1.53125 0.22986,0.19076 0.56916,0.37898 0.84375,0.5625 l -1.34375,0 a 1.250125,1.250125 0 0 0 -0.375,0.0312 1.250125,1.250125 0 0 0 -0.125,0.0625 1.250125,1.250125 0 0 0 -0.125,0.0312 1.250125,1.250125 0 0 0 -0.0937,0.0937 1.250125,1.250125 0 0 0 -0.0937,0.0625 1.250125,1.250125 0 0 0 -0.0937,0.0937 1.250125,1.250125 0 0 0 -0.21875,0.28125 1.250125,1.250125 0 0 0 -0.125,0.59375 l 0,0.8125 c 0,1.53481 0.1517,2.77215 0.65625,3.78125 0.25455,0.50909 0.59548,0.93482 1.03125,1.3125 0.43577,0.37768 0.96539,0.68946 1.53125,0.9375 1.14187,0.50055 2.44799,0.71875 3.90625,0.71875 1.33239,0 2.54305,-0.21283 3.59375,-0.6875 1.05301,-0.47573 1.90593,-1.20477 2.40625,-2.1875 0.51234,-1.00642 0.68748,-2.24459 0.6875,-3.75 -2e-5,-1.40878 -0.24176,-2.63231 -0.9375,-3.59375 -0.49247,-0.68048 -1.27969,-1.21639 -2.1875,-1.75 l 1.46875,0 a 1.250125,1.250125 0 0 0 0.125,-0.0312 1.250125,1.250125 0 0 0 0.375,-0.0937 1.250125,1.250125 0 0 0 0.0937,-0.0312 1.250125,1.250125 0 0 0 0.15625,-0.0937 l 1.59375,8.09375 a 1.250125,1.250125 0 0 0 0,0.0312 c 0.0821,0.40368 0.13822,0.67543 0.1875,0.9375 -0.21648,0.0214 -0.18851,0.0312 -0.5625,0.0312 a 1.250125,1.250125 0 0 0 -0.25,0 1.250125,1.250125 0 0 0 -0.0937,0.0312 1.250125,1.250125 0 0 0 -0.125,0.0625 1.250125,1.250125 0 0 0 -0.3125,0.1875 1.250125,1.250125 0 0 0 -0.0937,0.0937 1.250125,1.250125 0 0 0 -0.21875,0.3125 1.250125,1.250125 0 0 0 -0.0937,0.21875 1.250125,1.250125 0 0 0 -0.0625,0.34375 l 0,2.71875 a 1.250125,1.250125 0 0 0 0.0312,0.25 1.250125,1.250125 0 0 0 0.0312,0.125 1.250125,1.250125 0 0 0 0.0625,0.125 1.250125,1.250125 0 0 0 0.0937,0.21875 1.250125,1.250125 0 0 0 0.28125,0.28125 1.250125,1.250125 0 0 0 0.0937,0.0625 1.250125,1.250125 0 0 0 0.0937,0.0625 1.250125,1.250125 0 0 0 0.5625,0.125 l 3.1875,0 c 1.51238,0 2.6422,-0.0682 3.5625,-0.375 0.84434,-0.28145 1.58879,-0.76413 2.125,-1.4375 0.51087,-0.64159 0.83944,-1.42077 1.03125,-2.28125 0.15934,-0.71491 0.33804,-2.02909 0.53125,-3.59375 0.0792,0.94076 0.11819,1.92388 0.46875,2.625 0.25455,0.50909 0.59548,0.93482 1.03125,1.3125 0.43577,0.37768 0.9654,0.68945 1.53125,0.9375 1.14187,0.50055 2.44799,0.71875 3.90625,0.71875 1.33239,0 2.54305,-0.21283 3.59375,-0.6875 0.52651,-0.23787 0.99611,-0.53474 1.40625,-0.90625 0.41014,-0.37151 0.74985,-0.78988 1,-1.28125 0.0552,-0.10846 0.0151,-0.29277 0.0625,-0.40625 0.16439,0.69061 0.53901,1.32972 1.0625,1.8125 0.54601,0.50356 1.24127,0.8582 1.96875,1 0.68856,0.13422 1.55615,0.15625 2.78125,0.15625 l 2.09375,0 a 1.250125,1.250125 0 0 0 0.125,0 1.250125,1.250125 0 0 0 0.125,0 1.250125,1.250125 0 0 0 0.125,-0.0312 1.250125,1.250125 0 0 0 0.625,-0.4375 1.250125,1.250125 0 0 0 0.1875,-0.3125 1.250125,1.250125 0 0 0 0.0312,-0.125 1.250125,1.250125 0 0 0 0.0312,-0.34375 l 0,-0.53125 c 0.61554,0.66487 1.38925,1.18268 2.3125,1.53125 1.01358,0.38268 2.15044,0.5625 3.375,0.5625 1.25699,0 2.34855,-0.14938 3.3125,-0.5625 0.94174,-0.40361 1.7576,-1.06265 2.375,-1.875 0.30285,-0.3985 0.42252,-0.80974 0.625,-1.21875 l 0,2.09375 a 1.250125,1.250125 0 0 0 0,0.125 1.250125,1.250125 0 0 0 0.0312,0.125 1.250125,1.250125 0 0 0 0.25,0.5625 1.250125,1.250125 0 0 0 0.1875,0.1875 1.250125,1.250125 0 0 0 0.0937,0.0625 1.250125,1.250125 0 0 0 0.125,0.0625 1.250125,1.250125 0 0 0 0.0937,0.0625 1.250125,1.250125 0 0 0 0.125,0.0312 1.250125,1.250125 0 0 0 0.25,0.0312 1.250125,1.250125 0 0 0 0.0937,0 l 5.0625,0 a 1.250125,1.250125 0 0 0 0.125,0 1.250125,1.250125 0 0 0 0.125,0 1.250125,1.250125 0 0 0 0.25,-0.0937 1.250125,1.250125 0 0 0 0.21875,-0.125 1.250125,1.250125 0 0 0 0.125,-0.125 1.250125,1.250125 0 0 0 0.1875,0.15625 1.250125,1.250125 0 0 0 0.21875,0.125 1.250125,1.250125 0 0 0 0.25,0.0625 1.250125,1.250125 0 0 0 0.125,0 1.250125,1.250125 0 0 0 0.0625,0 l 5.09375,0 a 1.250125,1.250125 0 0 0 0.25,0 1.250125,1.250125 0 0 0 0.21875,-0.0937 1.250125,1.250125 0 0 0 0.21875,-0.125 1.250125,1.250125 0 0 0 0.15625,-0.125 1.250125,1.250125 0 0 0 0.0937,0.0937 1.250125,1.250125 0 0 0 0.0937,0.0625 1.250125,1.250125 0 0 0 0.21875,0.125 1.250125,1.250125 0 0 0 0.46875,0.0625 l 5.0625,0 a 1.250125,1.250125 0 0 0 0.125,0 1.250125,1.250125 0 0 0 0.125,0 1.250125,1.250125 0 0 0 0.25,-0.0937 1.250125,1.250125 0 0 0 0.21875,-0.125 1.250125,1.250125 0 0 0 0.1875,-0.15625 1.250125,1.250125 0 0 0 0.25,0.1875 1.250125,1.250125 0 0 0 0.21875,0.125 1.250125,1.250125 0 0 0 0.21875,0.0625 1.250125,1.250125 0 0 0 0.125,0 1.250125,1.250125 0 0 0 0.0937,0 l 5.375,0 a 1.250125,1.250125 0 0 0 0.5,-0.0937 1.250125,1.250125 0 0 0 0.125,-0.0312 1.250125,1.250125 0 0 0 0.0937,-0.0937 1.250125,1.250125 0 0 0 0.0937,-0.0625 1.250125,1.250125 0 0 0 0.0937,-0.0937 1.250125,1.250125 0 0 0 0.34375,-0.875 l 0,-1.125 c 0.53141,0.86093 1.33141,1.52499 2.34375,1.96875 1.14187,0.50055 2.47924,0.71875 3.9375,0.71875 1.33239,0 2.5118,-0.21283 3.5625,-0.6875 0.52651,-0.23787 1.02736,-0.53474 1.4375,-0.90625 0.41014,-0.37151 0.74984,-0.78989 1,-1.28125 0.0899,-0.17659 0.0554,-0.46619 0.125,-0.65625 0.22229,0.52042 0.47887,1.01449 0.84375,1.4375 0.3989,0.46246 0.89738,0.87154 1.4375,1.1875 0.56531,0.33071 1.18412,0.53818 1.875,0.6875 0.69088,0.14932 1.44121,0.21875 2.25,0.21875 1.28801,0 2.4394,-0.19011 3.4375,-0.65625 0.97945,-0.45744 1.83073,-1.1658 2.4375,-2.0625 0.13421,-0.19835 0.13783,-0.42212 0.25,-0.625 l 0,1.78125 a 1.250125,1.250125 0 0 0 0.0625,0.375 1.250125,1.250125 0 0 0 0.0312,0.125 1.250125,1.250125 0 0 0 0.0625,0.125 1.250125,1.250125 0 0 0 0.0625,0.0937 1.250125,1.250125 0 0 0 0.25,0.28125 1.250125,1.250125 0 0 0 0.125,0.0625 1.250125,1.250125 0 0 0 0.0937,0.0625 1.250125,1.250125 0 0 0 0.46875,0.125 1.250125,1.250125 0 0 0 0.0937,0 l 5.21875,0 a 1.250125,1.250125 0 0 0 0.125,0 1.250125,1.250125 0 0 0 0.125,0 1.250125,1.250125 0 0 0 0.25,-0.0937 1.250125,1.250125 0 0 0 0.21875,-0.125 1.250125,1.250125 0 0 0 0.0937,-0.0625 1.250125,1.250125 0 0 0 0.0625,0.0312 1.250125,1.250125 0 0 0 0.3125,0.1875 1.250125,1.250125 0 0 0 0.375,0.0625 1.250125,1.250125 0 0 0 0.0937,0 l 5.21875,0 a 1.250125,1.250125 0 0 0 0.46875,-0.0937 1.250125,1.250125 0 0 0 0.125,-0.0312 1.250125,1.250125 0 0 0 0.0937,-0.0937 1.250125,1.250125 0 0 0 0.28125,-0.25 1.250125,1.250125 0 0 0 0.28125,-0.78125 l 0,-1.90625 c 0.2151,0.42239 0.3439,0.88035 0.65625,1.25 0.63245,0.74849 1.50173,1.27936 2.5,1.65625 1.01358,0.38268 2.15045,0.5625 3.375,0.5625 1.25699,0 2.34855,-0.14938 3.3125,-0.5625 0.94175,-0.40361 1.7576,-1.06264 2.375,-1.875 0.56553,-0.74412 0.96866,-1.48257 1.15625,-2.28125 0.17312,-0.73742 0.24999,-1.60523 0.25,-2.71875 l 0,-1.28125 a 1.250125,1.250125 0 0 0 0,-0.125 1.250125,1.250125 0 0 0 -0.0312,-0.125 1.250125,1.250125 0 0 0 -0.0625,-0.21875 1.250125,1.250125 0 0 0 -0.0312,-0.0937 1.250125,1.250125 0 0 0 0.0312,-0.0937 1.250125,1.250125 0 0 0 0.0312,-0.125 1.250125,1.250125 0 0 0 0.0625,-0.34375 l 0,-2.25 c -1e-5,-1.76085 -0.20011,-3.20851 -0.6875,-4.375 -0.24558,-0.5877 -0.57281,-1.12196 -1,-1.59375 -0.42719,-0.47179 -0.95689,-0.88347 -1.53125,-1.21875 -0.59709,-0.34851 -1.25622,-0.58588 -1.96875,-0.75 -0.71253,-0.16412 -1.46901,-0.24999 -2.28125,-0.25 -1.35937,1e-5 -2.6334,0.25422 -3.75,0.8125 -0.56876,0.28439 -1.06618,0.65952 -1.5,1.09375 -0.43382,0.43423 -0.80072,0.94025 -1.0625,1.5 -0.0439,0.094 -0.023,0.2465 -0.0625,0.34375 -0.0208,-0.11917 -0.006,-0.35926 -0.0312,-0.46875 -0.22134,-0.9456 -0.83988,-1.75197 -1.65625,-2.34375 -0.43536,-0.31555 -0.91991,-0.56349 -1.4375,-0.71875 -0.51759,-0.15526 -1.0617,-0.21874 -1.625,-0.21875 -0.65334,1e-5 -1.30202,0.13601 -1.90625,0.34375 l 0,-2.5625 a 1.250125,1.250125 0 0 0 -0.0312,-0.375 1.250125,1.250125 0 0 0 -0.25,-0.4375 1.250125,1.250125 0 0 0 -0.1875,-0.15625 1.250125,1.250125 0 0 0 -0.78125,-0.28125 l -5.21875,0 a 1.250125,1.250125 0 0 0 -0.46875,0.0937 1.250125,1.250125 0 0 0 -0.125,0.0625 1.250125,1.250125 0 0 0 -0.3125,0.21875 1.250125,1.250125 0 0 0 -0.15625,0.21875 1.250125,1.250125 0 0 0 -0.125,0.3125 1.250125,1.250125 0 0 0 -0.0312,0.125 1.250125,1.250125 0 0 0 -0.0312,0.125 1.250125,1.250125 0 0 0 0,0.0937 l 0,5.40625 c -0.17454,-0.30761 -0.29395,-0.6365 -0.53125,-0.90625 -0.41769,-0.47481 -0.95432,-0.87361 -1.53125,-1.21875 -1.18832,-0.71085 -2.58543,-1.06249 -4.125,-1.0625 -1.5484,1e-5 -2.9724,0.34261 -4.15625,1.0625 -0.55521,0.33763 -1.03193,0.72582 -1.4375,1.15625 -0.39535,0.41959 -0.6947,0.88728 -0.90625,1.40625 -0.18942,-0.5954 -0.48834,-1.12591 -0.9375,-1.625 -0.60155,-0.66835 -1.40707,-1.16075 -2.34375,-1.5 -0.97687,-0.35376 -2.06816,-0.49999 -3.3125,-0.5 -1.2757,1e-5 -2.45455,0.19852 -3.5,0.625 -0.52948,0.21602 -1.01907,0.50066 -1.4375,0.84375 -0.2905,0.23819 -0.50082,0.54491 -0.71875,0.84375 l 0,-0.75 a 1.250125,1.250125 0 0 0 0,-0.125 1.250125,1.250125 0 0 0 -0.0312,-0.25 1.250125,1.250125 0 0 0 -0.0625,-0.125 1.250125,1.250125 0 0 0 0.0937,-0.34375 1.250125,1.250125 0 0 0 0,-0.125 1.250125,1.250125 0 0 0 0,-0.0937 l 0,-2.71875 a 1.250125,1.250125 0 0 0 -0.0937,-0.46875 1.250125,1.250125 0 0 0 -0.0625,-0.125 1.250125,1.250125 0 0 0 -0.125,-0.21875 1.250125,1.250125 0 0 0 -0.5,-0.34375 1.250125,1.250125 0 0 0 -0.375,-0.0937 1.250125,1.250125 0 0 0 -0.0937,0 l -5.375,0 a 1.250125,1.250125 0 0 0 -0.125,0 z m -35.1875,9.40625 0.15625,0 a 1.250125,1.250125 0 0 0 0.0312,0 c -0.0434,0.35728 -0.17371,0.64148 -0.1875,1.03125 l 0,-1.03125 z m -7.75,2.09375 0,2.25 c -0.0427,-0.0667 -0.0472,-0.15437 -0.0937,-0.21875 -0.3572,-0.49356 -0.83269,-0.91219 -1.40625,-1.3125 -0.2172,-0.15159 -0.5319,-0.29093 -0.78125,-0.4375 l 1.46875,0 a 1.250125,1.250125 0 0 0 0.125,-0.0312 1.250125,1.250125 0 0 0 0.25,-0.0312 1.250125,1.250125 0 0 0 0.34375,-0.15625 1.250125,1.250125 0 0 0 0.0937,-0.0625 z m 142.75,0.15625 0,1.65625 c -0.32578,-0.39006 -0.68169,-0.76254 -1.15625,-1.09375 -0.2172,-0.15159 -0.5319,-0.29093 -0.78125,-0.4375 l 1.46875,0 a 1.250125,1.250125 0 0 0 0.125,-0.0312 1.250125,1.250125 0 0 0 0.25,-0.0312 1.250125,1.250125 0 0 0 0.0937,-0.0625 z m -81.40625,0.0625 a 1.250125,1.250125 0 0 0 0.0312,0 l 0,1.53125 c -0.46992,-0.54265 -1.10703,-1.01811 -1.875,-1.46875 l 1.5,0 a 1.250125,1.250125 0 0 0 0.125,-0.0312 1.250125,1.250125 0 0 0 0.125,0 1.250125,1.250125 0 0 0 0.0937,-0.0312 z m 7.75,1 a 1.250125,1.250125 0 0 0 0.0937,0.0312 1.250125,1.250125 0 0 0 0.125,0 1.250125,1.250125 0 0 0 0.0937,0 l 4.9375,0 a 1.250125,1.250125 0 0 0 0.125,0 1.250125,1.250125 0 0 0 0.125,0 1.250125,1.250125 0 0 0 0.0312,0 l 0,1.15625 a 1.250125,1.250125 0 0 0 -0.0625,0 1.250125,1.250125 0 0 0 -0.125,0 1.250125,1.250125 0 0 0 -0.0937,-0.0312 l -4.65625,0 a 1.250125,1.250125 0 0 0 -0.375,0.0625 1.250125,1.250125 0 0 0 -0.21875,0.0937 l 0,-1.3125 z m -81.25,0.53125 c 0.26298,0.40135 0.52968,0.78656 0.9375,1.125 0.22746,0.18876 0.57248,0.38087 0.84375,0.5625 l -1.34375,0 a 1.250125,1.250125 0 0 0 -0.125,0 1.250125,1.250125 0 0 0 -0.125,0 1.250125,1.250125 0 0 0 -0.125,0.0312 1.250125,1.250125 0 0 0 -0.25,0.0937 1.250125,1.250125 0 0 0 -0.0312,0.0312 l 0.21875,-1.84375 z m 61.84375,0.0625 c 0.25675,0.37683 0.48783,0.7412 0.875,1.0625 0.22746,0.18876 0.57248,0.38087 0.84375,0.5625 l -1.34375,0 a 1.250125,1.250125 0 0 0 -0.25,0 1.250125,1.250125 0 0 0 -0.125,0.0312 l 0,-1.65625 z m 81.4375,0.15625 c 0.23446,0.30919 0.42241,0.63439 0.75,0.90625 0.22746,0.18876 0.57248,0.38087 0.84375,0.5625 l -1.34375,0 a 1.250125,1.250125 0 0 0 -0.125,0 1.250125,1.250125 0 0 0 -0.125,0 l 0,-1.46875 z m -123.375,3.46875 c 0.0211,0.45118 0.0695,0.86919 0.125,1.25 -0.0369,-10e-4 -0.0597,0.001 -0.0937,0 -0.0122,-0.23975 -0.0312,-0.46734 -0.0312,-0.84375 l 0,-0.40625 z m 163.53125,2.21875 c 0.13202,0.2271 0.3268,0.3948 0.5,0.59375 l -0.0937,0 a 1.250125,1.250125 0 0 0 -0.25,0 1.250125,1.250125 0 0 0 -0.15625,0.0312 l 0,-0.625 z"
           style="font-size:medium;font-style:normal;font-variant:normal;font-weight:normal;font-stretch:normal;text-indent:0;text-align:start;text-decoration:none;line-height:normal;letter-spacing:normal;word-spacing:normal;text-transform:none;direction:ltr;block-progression:tb;writing-mode:lr-tb;text-anchor:start;baseline-shift:baseline;color:#000000;fill:#ffffff;fill-opacity:1;stroke:none;stroke-width:2.5;marker:none;visibility:visible;display:inline;overflow:visible;enable-background:accumulate;font-family:Sans;-inkscape-font-specification:Sans" />
      </g>
      <g
         inkscape:groupmode="layer"
         id="layer7"
         inkscape:label="inner - sys.-Lös."
         style="display:inline">
        <path
           id="path3251"
           style="fill:#000000;fill-opacity:1;fill-rule:nonzero;stroke:none;display:inline"
           d="m 395.00977,141.7389 -0.0906,1.57853 c 0.37953,-0.62967 0.84317,-1.10193 1.39092,-1.4168 0.54774,-0.31482 1.17958,-0.47225 1.89554,-0.47226 0.89708,1e-5 1.63028,0.21135 2.1996,0.634 0.5693,0.42268 0.93589,0.95533 1.0998,1.59794 0.16388,0.64265 0.24582,1.71441 0.24584,3.2153 l 0,12.0331 -5.22729,0 0,-11.89077 c 0,-1.18174 -0.0388,-1.902 -0.11644,-2.16079 -0.0776,-0.25876 -0.29329,-0.38815 -0.64695,-0.38816 -0.37091,1e-5 -0.60381,0.14881 -0.69869,0.44639 -0.0949,0.2976 -0.14233,1.09334 -0.14233,2.38721 l 0,11.60612 -5.22728,0 0,-17.16981 5.31785,0 z m -7.03872,8.88897 -6.76701,0 0,3.71344 c 0,0.77633 0.0561,1.27663 0.16821,1.5009 0.11213,0.22427 0.32778,0.33641 0.64694,0.33641 0.39678,0 0.66203,-0.1488 0.79574,-0.44639 0.13369,-0.29759 0.20054,-0.87337 0.20055,-1.72733 l 0,-2.2643 4.95557,0 0,1.26801 c -2e-5,1.06099 -0.0669,1.87613 -0.20056,2.44543 -0.13371,0.56931 -0.4464,1.17744 -0.93806,1.82438 -0.49169,0.64694 -1.11491,1.13214 -1.86966,1.45561 -0.75477,0.32347 -1.70146,0.48521 -2.84007,0.48521 -1.10412,0 -2.07884,-0.15958 -2.92417,-0.47874 -0.84534,-0.31915 -1.50306,-0.75692 -1.97317,-1.31329 -0.47011,-0.55636 -0.79574,-1.1688 -0.97688,-1.83731 -0.18115,-0.6685 -0.27172,-1.64107 -0.27172,-2.9177 l 0,-5.00732 c 0,-1.50089 0.20271,-2.68479 0.60813,-3.55171 0.40541,-0.86688 1.0696,-1.53108 1.99258,-1.99258 0.92296,-0.46146 1.98394,-0.69221 3.18294,-0.69222 1.4664,1e-5 2.67617,0.2782 3.62934,0.83455 0.95315,0.55639 1.62166,1.2939 2.00552,2.21254 0.38384,0.91867 0.57576,2.21039 0.57578,3.87517 l 0,2.27724 z m -5.24022,-2.79479 0,-1.25506 c -1e-5,-0.88846 -0.0474,-1.46208 -0.14233,-1.72087 -0.0949,-0.25876 -0.28898,-0.38815 -0.58225,-0.38816 -0.36229,1e-5 -0.58656,0.10999 -0.67282,0.32994 -0.0863,0.21997 -0.12939,0.813 -0.12939,1.77909 l 0,1.25506 1.52679,0 z m -8.48786,-6.09418 0,13.22347 c -1e-5,1.78556 -0.041,2.93927 -0.12292,3.46113 -0.082,0.52187 -0.37308,1.07392 -0.87337,1.65617 -0.50031,0.58225 -1.19685,1.02648 -2.08962,1.3327 -0.89278,0.30621 -2.0163,0.45932 -3.37056,0.45933 -1.6648,-1e-5 -3.00181,-0.2825 -4.01103,-0.8475 -1.00923,-0.56499 -1.5311,-1.67557 -1.5656,-3.33174 l 5.07202,0 c -10e-6,0.75908 0.27602,1.13862 0.82808,1.13862 0.39679,0 0.65987,-0.11645 0.78927,-0.34935 0.12938,-0.2329 0.19407,-0.72026 0.19408,-1.46209 l 0,-1.29388 c -0.44855,0.40542 -0.92082,0.71164 -1.4168,0.91866 -0.49599,0.20702 -1.0157,0.31053 -1.55913,0.31053 -0.94022,0 -1.71439,-0.18977 -2.32251,-0.56931 -0.60813,-0.37954 -1.02433,-0.87768 -1.2486,-1.49443 -0.22427,-0.61675 -0.33641,-1.49443 -0.33641,-2.63305 l 0,-6.23651 c 0,-1.63028 0.29328,-2.8034 0.87984,-3.51936 0.58656,-0.71593 1.47934,-1.07391 2.67834,-1.07392 0.65556,1e-5 1.2529,0.13372 1.79202,0.4011 0.53911,0.26742 1.02,0.66852 1.44268,1.20331 l 0.37523,-1.29388 4.86499,0 z m -5.24022,4.55446 c -10e-6,-0.78494 -0.0453,-1.28524 -0.13586,-1.5009 -0.0906,-0.21563 -0.29113,-0.32346 -0.60165,-0.32347 -0.30191,1e-5 -0.5154,0.12293 -0.64047,0.36876 -0.12509,0.24585 -0.18762,0.73105 -0.18762,1.45561 l 0,5.77071 c 0,0.76771 0.0474,1.26586 0.14233,1.49444 0.0949,0.22859 0.29327,0.34288 0.59519,0.34288 0.34502,0 0.5693,-0.13801 0.67281,-0.41405 0.10351,-0.27602 0.15526,-0.90139 0.15527,-1.87612 l 0,-5.31786 z m -15.19017,-4.55446 -0.0906,1.57853 c 0.37953,-0.62967 0.84317,-1.10193 1.39092,-1.4168 0.54774,-0.31482 1.17958,-0.47225 1.89554,-0.47226 0.89708,1e-5 1.63028,0.21135 2.1996,0.634 0.5693,0.42268 0.9359,0.95533 1.0998,1.59794 0.16388,0.64265 0.24582,1.71441 0.24584,3.2153 l 0,12.0331 -5.22728,0 0,-11.89077 c -10e-6,-1.18174 -0.0388,-1.902 -0.11645,-2.16079 -0.0776,-0.25876 -0.29329,-0.38815 -0.64694,-0.38816 -0.37092,1e-5 -0.60382,0.14881 -0.6987,0.44639 -0.0949,0.2976 -0.14233,1.09334 -0.14233,2.38721 l 0,11.60612 -5.22728,0 0,-17.16981 5.31785,0 z m -7.21987,0 0,17.16981 -5.31785,0 0.0906,-1.42327 c -0.36229,0.57793 -0.80868,1.01138 -1.33917,1.30035 -0.53049,0.28897 -1.14077,0.43345 -1.83084,0.43345 -0.78496,0 -1.43621,-0.13801 -1.95376,-0.41404 -0.51755,-0.27603 -0.89925,-0.64263 -1.14509,-1.0998 -0.24583,-0.45717 -0.39894,-0.93375 -0.45932,-1.42974 -0.0604,-0.49599 -0.0906,-1.48149 -0.0906,-2.95652 l 0,-11.58024 5.22728,0 0,11.68375 c -10e-6,1.33702 0.041,2.1306 0.12292,2.38074 0.0819,0.25016 0.30405,0.37523 0.66634,0.37523 0.38816,0 0.6189,-0.12939 0.69223,-0.38817 0.0733,-0.25877 0.10997,-1.09117 0.10998,-2.49719 l 0,-11.55436 5.22728,0 z m -13.76689,5.48606 -4.63209,0 0,-0.9316 c -1e-5,-0.79357 -0.0453,-1.29602 -0.13586,-1.50737 -0.0906,-0.21132 -0.31701,-0.31699 -0.67929,-0.317 -0.29328,1e-5 -0.51324,0.097 -0.65988,0.29112 -0.14664,0.1941 -0.21996,0.48522 -0.21996,0.87337 0,0.52619 0.0367,0.9122 0.10998,1.15803 0.0733,0.24585 0.29328,0.5154 0.65988,0.80867 0.3666,0.29329 1.1192,0.72027 2.25783,1.28095 1.51814,0.74183 2.51443,1.44053 2.98886,2.09608 0.47441,0.65558 0.71163,1.60874 0.71164,2.85948 -10e-6,1.3974 -0.18116,2.45191 -0.54343,3.16354 -0.3623,0.71164 -0.96827,1.25938 -1.81791,1.64323 -0.84965,0.38385 -1.87398,0.57578 -3.07297,0.57578 -1.32839,0 -2.46484,-0.20702 -3.40937,-0.62106 -0.94454,-0.41404 -1.59364,-0.97473 -1.9473,-1.68205 -0.35366,-0.70732 -0.53049,-1.77693 -0.53049,-3.20883 l 0,-0.82808 4.6321,0 0,1.08686 c -10e-6,0.92297 0.0582,1.52247 0.17467,1.7985 0.11645,0.27603 0.34719,0.41404 0.69223,0.41404 0.37091,0 0.62968,-0.0927 0.77633,-0.27819 0.14663,-0.18545 0.21995,-0.57577 0.21996,-1.17096 -1e-5,-0.81945 -0.0949,-1.33269 -0.28465,-1.53972 -0.19841,-0.20701 -1.21195,-0.81945 -3.04063,-1.83731 -1.53541,-0.86258 -2.47131,-1.64538 -2.80772,-2.3484 -0.33641,-0.70299 -0.50461,-1.53755 -0.50461,-2.50366 0,-1.3715 0.18114,-2.38288 0.54343,-3.03415 0.36228,-0.65124 0.97688,-1.15369 1.84378,-1.50737 0.86689,-0.35364 1.87396,-0.53048 3.02121,-0.53049 1.13861,1e-5 2.10686,0.1445 2.90477,0.43345 0.79788,0.28898 1.41032,0.67068 1.83731,1.14508 0.42697,0.47444 0.68574,0.91436 0.77633,1.31976 0.0906,0.40543 0.13584,1.03943 0.13585,1.90201 l 0,0.99629 z m -12.40833,0.54343 0,4.20511 c -10e-6,1.54404 -0.0777,2.67619 -0.2329,3.39644 -0.15528,0.72027 -0.48737,1.39308 -0.99629,2.01846 -0.50894,0.62537 -1.16235,1.08686 -1.96023,1.38445 -0.7979,0.29759 -1.7144,0.44639 -2.7495,0.44639 -1.15587,0 -2.13491,-0.12723 -2.93711,-0.3817 -0.80221,-0.25446 -1.42543,-0.63831 -1.86966,-1.15155 -0.44423,-0.51324 -0.76123,-1.1343 -0.951,-1.86319 -0.18977,-0.72888 -0.28466,-1.82221 -0.28466,-3.27999 l 0,-4.3992 c 0,-1.59577 0.17252,-2.84221 0.51756,-3.73931 0.34503,-0.89708 0.96609,-1.61734 1.86319,-2.16079 0.89708,-0.54341 2.04432,-0.81513 3.44172,-0.81514 1.17311,1e-5 2.18018,0.17469 3.02122,0.52402 0.84101,0.34936 1.4901,0.80438 1.94729,1.36504 0.45716,0.5607 0.76984,1.13863 0.93806,1.73381 0.16819,0.59519 0.2523,1.50091 0.25231,2.71715 l 0,0 z m -5.22728,-1.29388 c -10e-6,-0.87983 -0.0475,-1.43404 -0.14233,-1.66264 -0.0949,-0.22857 -0.2976,-0.34287 -0.60813,-0.34288 -0.31053,1e-5 -0.51755,0.11431 -0.62106,0.34288 -0.10351,0.2286 -0.15527,0.78281 -0.15526,1.66264 l 0,7.75035 c -1e-5,0.81083 0.0518,1.33917 0.15526,1.585 0.10351,0.24584 0.30621,0.36876 0.60813,0.36876 0.31052,0 0.51539,-0.11214 0.61459,-0.33641 0.0992,-0.22427 0.14879,-0.70732 0.1488,-1.44915 l 0,-7.91855 z m -1.91495,-9.2642 0,3.3641 -3.37703,0 0,-3.3641 3.37703,0 z m 5.65426,0 0,3.3641 -3.37703,0 0,-3.3641 3.37703,0 z m -14.82787,0.75045 0,16.75577 3.31233,0 0,4.19218 -8.75957,0 0,-20.94795 5.44724,0 z m -11.98135,12.66711 -6.767,0 0,3.71344 c -10e-6,0.77633 0.0561,1.27663 0.1682,1.5009 0.11213,0.22427 0.32778,0.33641 0.64694,0.33641 0.39679,0 0.66203,-0.1488 0.79574,-0.44639 0.13369,-0.29759 0.20055,-0.87337 0.20055,-1.72733 l 0,-2.2643 4.95557,0 0,1.26801 c -10e-6,1.06099 -0.0669,1.87613 -0.20055,2.44543 -0.13372,0.56931 -0.4464,1.17744 -0.93807,1.82438 -0.49168,0.64694 -1.1149,1.13214 -1.86966,1.45561 -0.75477,0.32347 -1.70146,0.48521 -2.84007,0.48521 -1.10411,0 -2.07884,-0.15958 -2.92417,-0.47874 -0.84534,-0.31915 -1.50306,-0.75692 -1.97317,-1.31329 -0.47011,-0.55636 -0.79574,-1.1688 -0.97688,-1.83731 -0.18114,-0.6685 -0.27171,-1.64107 -0.27171,-2.9177 l 0,-5.00732 c 0,-1.50089 0.2027,-2.68479 0.60812,-3.55171 0.40542,-0.86688 1.06961,-1.53108 1.99258,-1.99258 0.92296,-0.46146 1.98395,-0.69221 3.18295,-0.69222 1.46639,1e-5 2.67617,0.2782 3.62934,0.83455 0.95314,0.55639 1.62165,1.2939 2.00551,2.21254 0.38384,0.91867 0.57577,2.21039 0.57578,3.87517 l 0,2.27724 z m -5.24022,-2.79479 0,-1.25506 c -1e-5,-0.88846 -0.0474,-1.46208 -0.14233,-1.72087 -0.0949,-0.25876 -0.28897,-0.38815 -0.58224,-0.38816 -0.3623,1e-5 -0.58657,0.10999 -0.67282,0.32994 -0.0863,0.21997 -0.1294,0.813 -0.12939,1.77909 l 0,1.25506 1.52678,0 z m -15.24192,-9.87232 0,4.70973 c 0.44854,-0.41402 0.93374,-0.72455 1.45561,-0.93159 0.52186,-0.207 1.08039,-0.31052 1.67558,-0.31053 0.91433,1e-5 1.69282,0.23291 2.33546,0.69869 0.64261,0.46582 1.03509,1.00278 1.17743,1.61089 0.14231,0.60814 0.21348,1.71872 0.21349,3.33174 l 0,11.83902 -5.22728,0 0,-12.08486 c -10e-6,-1.00058 -0.0496,-1.64321 -0.1488,-1.92788 -0.0992,-0.28464 -0.32132,-0.42697 -0.66635,-0.42698 -0.31916,1e-5 -0.53481,0.14665 -0.64694,0.43992 -0.11214,0.29329 -0.16821,0.87554 -0.1682,1.74674 l 0,12.25306 -5.22728,0 0,-20.94795 5.22728,0 z m -6.76701,10.26049 -4.92969,0 0,-1.97964 c 0,-0.69006 -0.0561,-1.15801 -0.1682,-1.40386 -0.11214,-0.24583 -0.31917,-0.36875 -0.62106,-0.36876 -0.30192,1e-5 -0.50462,0.10784 -0.60813,0.32347 -0.10351,0.21566 -0.15527,0.69871 -0.15526,1.44915 l 0,8.0997 c -10e-6,0.61244 0.0776,1.07176 0.23289,1.37798 0.15526,0.30622 0.38385,0.45933 0.68576,0.45933 0.35366,0 0.59302,-0.15958 0.71811,-0.47874 0.12506,-0.31915 0.1876,-0.92296 0.18761,-1.81143 l 0,-2.04434 4.65797,0 c -0.009,1.37152 -0.0582,2.40016 -0.14879,3.08591 -0.0906,0.68576 -0.37955,1.38877 -0.8669,2.10903 -0.48738,0.72026 -1.12354,1.26369 -1.90848,1.63029 -0.78496,0.3666 -1.75537,0.5499 -2.91123,0.5499 -1.47503,0 -2.64384,-0.25231 -3.50642,-0.75692 -0.86259,-0.50461 -1.47287,-1.21194 -1.83084,-2.12197 -0.35798,-0.91002 -0.53697,-2.20175 -0.53697,-3.87517 l 0,-4.87794 c 0,-1.45776 0.14664,-2.55755 0.43992,-3.29939 0.29328,-0.74181 0.91866,-1.40385 1.87613,-1.98611 0.95747,-0.58223 2.12196,-0.87336 3.49348,-0.87337 1.36288,1e-5 2.52738,0.28898 3.49348,0.8669 0.96609,0.57795 1.60872,1.30683 1.92789,2.18666 0.31914,0.87985 0.47872,2.12629 0.47873,3.73932 l 0,0 z m -13.35285,-0.99629 -4.6321,0 0,-0.9316 c 0,-0.79357 -0.0453,-1.29602 -0.13586,-1.50737 -0.0906,-0.21132 -0.317,-0.31699 -0.67928,-0.317 -0.29329,1e-5 -0.51325,0.097 -0.65988,0.29112 -0.14665,0.1941 -0.21997,0.48522 -0.21996,0.87337 -10e-6,0.52619 0.0367,0.9122 0.10998,1.15803 0.0733,0.24585 0.29327,0.5154 0.65988,0.80867 0.36659,0.29329 1.1192,0.72027 2.25782,1.28095 1.51814,0.74183 2.51443,1.44053 2.98887,2.09608 0.47441,0.65558 0.71162,1.60874 0.71163,2.85948 -1e-5,1.3974 -0.18115,2.45191 -0.54343,3.16354 -0.3623,0.71164 -0.96826,1.25938 -1.8179,1.64323 -0.84966,0.38385 -1.87398,0.57578 -3.07297,0.57578 -1.32839,0 -2.46485,-0.20702 -3.40938,-0.62106 -0.94453,-0.41404 -1.59363,-0.97473 -1.94729,-1.68205 -0.35366,-0.70732 -0.53049,-1.77693 -0.53049,-3.20883 l 0,-0.82808 4.63209,0 0,1.08686 c 0,0.92297 0.0582,1.52247 0.17468,1.7985 0.11644,0.27603 0.34718,0.41404 0.69222,0.41404 0.37091,0 0.62969,-0.0927 0.77633,-0.27819 0.14664,-0.18545 0.21996,-0.57577 0.21996,-1.17096 0,-0.81945 -0.0949,-1.33269 -0.28465,-1.53972 -0.1984,-0.20701 -1.21194,-0.81945 -3.04062,-1.83731 -1.53541,-0.86258 -2.47132,-1.64538 -2.80773,-2.3484 -0.33641,-0.70299 -0.50461,-1.53755 -0.50461,-2.50366 0,-1.3715 0.18114,-2.38288 0.54343,-3.03415 0.36229,-0.65124 0.97688,-1.15369 1.84378,-1.50737 0.8669,-0.35364 1.87397,-0.53048 3.02122,-0.53049 1.1386,1e-5 2.10686,0.1445 2.90476,0.43345 0.79788,0.28898 1.41032,0.67068 1.83731,1.14508 0.42697,0.47444 0.68575,0.91436 0.77633,1.31976 0.0906,0.40543 0.13585,1.03943 0.13586,1.90201 l 0,0.99629 z m -12.53772,-9.2642 0,2.73009 -5.38255,0 0,-2.73009 5.38255,0 z m 0,3.77814 0,17.16981 -5.38255,0 0,-17.16981 5.38255,0 z m -20.66329,0 -0.0906,1.63029 c 0.40541,-0.64692 0.88846,-1.13213 1.44915,-1.45562 0.56067,-0.32345 1.19899,-0.48519 1.91495,-0.4852 1.39738,1e-5 2.49718,0.64696 3.29939,1.94082 0.43991,-0.64692 0.9359,-1.13213 1.48797,-1.45562 0.55204,-0.32345 1.16448,-0.48519 1.83731,-0.4852 0.88845,1e-5 1.6238,0.21566 2.20607,0.64694 0.58223,0.43131 0.95529,0.95964 1.11921,1.585 0.16387,0.62539 0.24581,1.64109 0.24583,3.04709 l 0,12.20131 -5.07201,0 0,-11.19208 c -2e-5,-1.46638 -0.0496,-2.37426 -0.1488,-2.72362 -0.0992,-0.34933 -0.32995,-0.52401 -0.69223,-0.52402 -0.37092,1e-5 -0.61029,0.17253 -0.7181,0.51755 -0.10784,0.34505 -0.16175,1.25508 -0.16174,2.73009 l 0,11.19208 -5.07201,0 0,-10.90742 c -1e-5,-1.68204 -0.041,-2.69126 -0.12292,-3.02769 -0.082,-0.33639 -0.30838,-0.5046 -0.67929,-0.50461 -0.2329,1e-5 -0.4313,0.0884 -0.59518,0.26524 -0.1639,0.17685 -0.25447,0.3925 -0.27172,0.64695 -0.0173,0.25447 -0.0259,0.79575 -0.0259,1.62382 l 0,11.90371 -5.07201,0 0,-17.16981 5.16258,0 z m -6.88345,8.88897 -6.767,0 0,3.71344 c 0,0.77633 0.0561,1.27663 0.16821,1.5009 0.11213,0.22427 0.32778,0.33641 0.64694,0.33641 0.39678,0 0.66203,-0.1488 0.79574,-0.44639 0.13369,-0.29759 0.20054,-0.87337 0.20055,-1.72733 l 0,-2.2643 4.95556,0 0,1.26801 c -1e-5,1.06099 -0.0669,1.87613 -0.20055,2.44543 -0.13371,0.56931 -0.4464,1.17744 -0.93806,1.82438 -0.49169,0.64694 -1.11491,1.13214 -1.86966,1.45561 -0.75477,0.32347 -1.70146,0.48521 -2.84007,0.48521 -1.10412,0 -2.07884,-0.15958 -2.92417,-0.47874 -0.84534,-0.31915 -1.50306,-0.75692 -1.97317,-1.31329 -0.47011,-0.55636 -0.79574,-1.1688 -0.97688,-1.83731 -0.18115,-0.6685 -0.27172,-1.64107 -0.27172,-2.9177 l 0,-5.00732 c 0,-1.50089 0.20271,-2.68479 0.60813,-3.55171 0.40541,-0.86688 1.0696,-1.53108 1.99257,-1.99258 0.92297,-0.46146 1.98395,-0.69221 3.18295,-0.69222 1.46639,1e-5 2.67617,0.2782 3.62934,0.83455 0.95315,0.55639 1.62165,1.2939 2.00552,2.21254 0.38384,0.91867 0.57576,2.21039 0.57577,3.87517 l 0,2.27724 z m -5.24022,-2.79479 0,-1.25506 c 0,-0.88846 -0.0474,-1.46208 -0.14232,-1.72087 -0.0949,-0.25876 -0.28898,-0.38815 -0.58225,-0.38816 -0.36229,1e-5 -0.58657,0.10999 -0.67282,0.32994 -0.0863,0.21997 -0.12939,0.813 -0.12939,1.77909 l 0,1.25506 1.52678,0 z m -9.16068,-8.38435 0,2.70421 1.41033,0 0,2.71715 -1.41033,0 0,9.18656 c 0,1.13 0.0582,1.75968 0.17468,1.88907 0.11644,0.12939 0.60164,0.19408 1.45561,0.19408 l 0,2.76891 -2.10902,0 c -1.19038,0 -2.04003,-0.0496 -2.54895,-0.1488 -0.50893,-0.0992 -0.95748,-0.32778 -1.34564,-0.68576 -0.38816,-0.35797 -0.62969,-0.7677 -0.72457,-1.22918 -0.0949,-0.46149 -0.14233,-1.54619 -0.14233,-3.25412 l 0,-8.72076 -1.12568,0 0,-2.71715 1.12568,0 0,-2.70421 5.24022,0 z m -7.31043,7.77623 -4.6321,0 0,-0.9316 c 0,-0.79357 -0.0453,-1.29602 -0.13585,-1.50737 -0.0906,-0.21132 -0.31701,-0.31699 -0.67929,-0.317 -0.29329,1e-5 -0.51325,0.097 -0.65988,0.29112 -0.14665,0.1941 -0.21997,0.48522 -0.21996,0.87337 -1e-5,0.52619 0.0367,0.9122 0.10998,1.15803 0.0733,0.24585 0.29327,0.5154 0.65988,0.80867 0.36659,0.29329 1.1192,0.72027 2.25782,1.28095 1.51815,0.74183 2.51443,1.44053 2.98887,2.09608 0.47441,0.65558 0.71162,1.60874 0.71163,2.85948 -1e-5,1.3974 -0.18115,2.45191 -0.54343,3.16354 -0.36229,0.71164 -0.96826,1.25938 -1.8179,1.64323 -0.84966,0.38385 -1.87398,0.57578 -3.07297,0.57578 -1.32839,0 -2.46485,-0.20702 -3.40938,-0.62106 -0.94453,-0.41404 -1.59363,-0.97473 -1.94729,-1.68205 -0.35366,-0.70732 -0.53049,-1.77693 -0.53049,-3.20883 l 0,-0.82808 4.6321,0 0,1.08686 c -1e-5,0.92297 0.0582,1.52247 0.17467,1.7985 0.11644,0.27603 0.34719,0.41404 0.69223,0.41404 0.3709,0 0.62968,-0.0927 0.77633,-0.27819 0.14663,-0.18545 0.21995,-0.57577 0.21996,-1.17096 -1e-5,-0.81945 -0.0949,-1.33269 -0.28466,-1.53972 -0.1984,-0.20701 -1.21194,-0.81945 -3.04062,-1.83731 -1.53541,-0.86258 -2.47132,-1.64538 -2.80772,-2.3484 -0.33641,-0.70299 -0.50462,-1.53755 -0.50462,-2.50366 0,-1.3715 0.18115,-2.38288 0.54343,-3.03415 0.36229,-0.65124 0.97688,-1.15369 1.84378,-1.50737 0.8669,-0.35364 1.87397,-0.53048 3.02122,-0.53049 1.13861,1e-5 2.10686,0.1445 2.90476,0.43345 0.79789,0.28898 1.41032,0.67068 1.83731,1.14508 0.42697,0.47444 0.68575,0.91436 0.77633,1.31976 0.0906,0.40543 0.13585,1.03943 0.13586,1.90201 l 0,0.99629 z m -11.63199,-5.48606 -1.50091,12.42126 c -0.23291,1.96671 -0.42914,3.30803 -0.58871,4.02397 -0.15959,0.71595 -0.42484,1.30682 -0.79574,1.77262 -0.37092,0.4658 -0.88632,0.80868 -1.54619,1.02864 -0.65988,0.21996 -1.7144,0.32994 -3.16354,0.32994 l -3.17001,0 0,-2.74303 c 0.81083,0 1.3327,-0.041 1.5656,-0.12292 0.23289,-0.082 0.34934,-0.26524 0.34935,-0.5499 -1e-5,-0.13801 -0.10783,-0.73751 -0.32347,-1.7985 l -2.85948,-14.36208 4.74854,0 1.70793,11.58024 0.82808,-11.58024 4.74855,0 z m -12.74474,5.48606 -4.63209,0 0,-0.9316 c -1e-5,-0.79357 -0.0453,-1.29602 -0.13586,-1.50737 -0.0906,-0.21132 -0.31701,-0.31699 -0.67929,-0.317 -0.29328,1e-5 -0.51324,0.097 -0.65988,0.29112 -0.14664,0.1941 -0.21996,0.48522 -0.21996,0.87337 0,0.52619 0.0367,0.9122 0.10998,1.15803 0.0733,0.24585 0.29328,0.5154 0.65988,0.80867 0.36659,0.29329 1.1192,0.72027 2.25782,1.28095 1.51815,0.74183 2.51444,1.44053 2.98887,2.09608 0.47441,0.65558 0.71162,1.60874 0.71164,2.85948 -2e-5,1.3974 -0.18116,2.45191 -0.54343,3.16354 -0.3623,0.71164 -0.96827,1.25938 -1.81791,1.64323 -0.84966,0.38385 -1.87398,0.57578 -3.07297,0.57578 -1.32839,0 -2.46485,-0.20702 -3.40937,-0.62106 -0.94454,-0.41404 -1.59364,-0.97473 -1.9473,-1.68205 -0.35366,-0.70732 -0.53049,-1.77693 -0.53049,-3.20883 l 0,-0.82808 4.6321,0 0,1.08686 c -1e-5,0.92297 0.0582,1.52247 0.17467,1.7985 0.11645,0.27603 0.34719,0.41404 0.69223,0.41404 0.3709,0 0.62968,-0.0927 0.77633,-0.27819 0.14663,-0.18545 0.21995,-0.57577 0.21996,-1.17096 -1e-5,-0.81945 -0.0949,-1.33269 -0.28466,-1.53972 -0.1984,-0.20701 -1.21194,-0.81945 -3.04062,-1.83731 -1.53541,-0.86258 -2.47131,-1.64538 -2.80772,-2.3484 -0.33641,-0.70299 -0.50462,-1.53755 -0.50462,-2.50366 0,-1.3715 0.18115,-2.38288 0.54344,-3.03415 0.36228,-0.65124 0.97687,-1.15369 1.84378,-1.50737 0.86689,-0.35364 1.87396,-0.53048 3.02121,-0.53049 1.13861,1e-5 2.10686,0.1445 2.90476,0.43345 0.79789,0.28898 1.41032,0.67068 1.83732,1.14508 0.42697,0.47444 0.68574,0.91436 0.77633,1.31976 0.0906,0.40543 0.13584,1.03943 0.13585,1.90201 l 0,0.99629 z"
           inkscape:connector-curvature="0" />
      </g>
    </g>
    <g
       transform="translate(-14.99999,-8.26187)"
       id="g3001" />
    <g
       transform="translate(-14.99999,-8.26187)"
       id="g3029" />
    <g
       transform="translate(-14.99999,-8.26187)"
       id="g3245" />
    <g
       transform="translate(-14.99999,31.73813)"
       id="g3177" />
    <g
       transform="translate(-14.99999,31.73813)"
       id="g3181" />
    <g
       transform="translate(-14.99999,31.73813)"
       id="g3185" />
    <g
       transform="translate(-14.99999,31.73813)"
       id="g3189" />
    <g
       transform="translate(-14.99999,31.73813)"
       id="g3193" />
    <g
       transform="translate(-14.99999,31.73813)"
       id="g3197" />
    <g
       transform="translate(-14.99999,31.73813)"
       id="g3201" />
    <g
       transform="translate(-14.99999,31.73813)"
       id="g3205" />
    <g
       transform="translate(-14.99999,31.73813)"
       id="g3209" />
    <g
       transform="translate(-14.99999,31.73813)"
       id="g3213" />
    <g
       transform="translate(-14.99999,31.73813)"
       id="g3217" />
    <g
       transform="translate(-14.99999,31.73813)"
       id="g3221" />
    <g
       transform="translate(-14.99999,31.73813)"
       id="g3225" />
    <g
       transform="translate(-14.99999,31.73813)"
       id="g3229" />
    <g
       transform="translate(-14.99999,31.73813)"
       id="g3233" />
    <g
       transform="translate(-14.99999,31.73813)"
       id="g3237" />
    <g
       transform="translate(-14.99999,31.73813)"
       id="g3241" />
  </g>
</svg>
