<?xml version="1.0" standalone="no"?>
<!DOCTYPE svg PUBLIC "-//W3C//DTD SVG 20010904//EN"
 "http://www.w3.org/TR/2001/REC-SVG-20010904/DTD/svg10.dtd">
<svg version="1.0" xmlns="http://www.w3.org/2000/svg"
 width="693.000000pt" height="693.000000pt" viewBox="0 0 693.000000 693.000000"
 preserveAspectRatio="xMidYMid meet">
<metadata>
Created by potrace 1.14, written by Peter Selinger 2001-2017
</metadata>
<g transform="translate(0.000000,693.000000) scale(0.100000,-0.100000)"
fill="#000000" stroke="none">
<path d="M5307 5494 c-1 -1 -52 -4 -113 -8 -60 -4 -121 -8 -135 -11 -13 -2
-53 -6 -89 -10 -36 -4 -76 -8 -90 -10 -54 -7 -116 -16 -140 -20 -14 -3 -41 -7
-60 -10 -19 -3 -42 -8 -50 -10 -8 -2 -33 -7 -55 -10 -181 -25 -625 -144 -935
-250 -537 -185 -1097 -450 -1563 -742 -153 -96 -299 -195 -294 -199 2 -2 44
19 93 47 225 131 571 295 979 464 169 70 726 256 838 279 12 3 76 19 142 36
151 38 365 83 520 109 115 19 138 22 265 37 30 3 66 8 80 10 114 18 561 24
720 10 631 -54 1052 -278 1197 -636 70 -174 63 -400 -19 -635 -23 -66 -91
-211 -137 -292 -17 -29 -29 -53 -27 -53 9 0 175 212 230 295 183 273 267 518
261 760 -4 171 -35 267 -130 400 -170 240 -555 402 -1045 441 -79 6 -437 13
-443 8z"/>
<path d="M4157 4794 c-1 -1 -45 -5 -97 -8 -53 -4 -105 -8 -115 -10 -11 -2 -50
-7 -87 -10 -37 -4 -77 -9 -90 -11 -13 -2 -66 -11 -118 -20 -52 -9 -104 -18
-115 -20 -16 -3 -125 -27 -225 -50 -106 -24 -283 -76 -277 -81 2 -2 28 2 58
10 30 8 70 17 89 20 19 3 80 13 135 22 55 9 120 18 145 20 25 2 54 6 65 9 84
19 560 27 705 12 211 -22 381 -60 526 -117 647 -256 650 -840 8 -1463 -44 -42
-95 -89 -114 -104 -19 -16 -48 -41 -64 -56 -30 -28 -30 -28 19 3 47 30 128 85
150 102 163 124 223 176 350 303 131 130 167 173 240 280 115 172 166 304 171
450 4 121 -5 167 -53 265 -68 141 -219 263 -415 337 -91 35 -252 78 -328 88
-25 3 -52 8 -60 10 -47 12 -491 29 -503 19z"/>
<path d="M5770 4711 c169 -171 228 -354 193 -601 -15 -105 -15 -108 -47 -203
-97 -289 -337 -614 -696 -942 -46 -42 -96 -84 -254 -212 -97 -79 -402 -287
-578 -394 -257 -157 -560 -309 -973 -489 -142 -62 -457 -172 -671 -235 -227
-67 -618 -157 -744 -172 -53 -6 -74 -19 -27 -17 54 3 199 15 231 19 17 2 56 7
86 11 30 4 62 8 70 9 8 1 35 6 60 10 40 6 211 36 280 50 14 3 63 14 110 26 47
11 92 22 100 24 226 47 812 249 1110 382 1010 455 1813 1106 2104 1707 83 172
118 317 112 461 -5 105 -20 163 -68 262 -73 152 -212 271 -428 366 l-55 25 85
-87z"/>
<path d="M2165 4076 c-126 -53 -339 -160 -428 -214 -37 -23 -70 -42 -73 -42
-12 0 -225 -150 -318 -224 -131 -104 -326 -298 -326 -325 0 -5 -4 -11 -8 -13
-11 -4 -93 -133 -114 -178 -74 -158 -97 -301 -69 -423 27 -117 117 -239 235
-319 116 -80 310 -151 471 -173 22 -3 54 -8 70 -10 66 -11 114 -15 203 -19 98
-5 117 0 41 10 -24 3 -80 14 -124 24 -344 80 -566 236 -647 455 -32 86 -35
245 -7 346 27 100 97 238 171 340 181 249 565 558 933 751 61 32 106 57 100
57 -5 0 -55 -19 -110 -43z"/>
<path d="M730 3615 c-371 -332 -614 -677 -702 -1000 -25 -90 -31 -268 -13
-351 70 -323 436 -563 945 -619 166 -18 417 -23 570 -11 151 12 206 17 241 22
20 2 54 7 75 9 232 29 620 114 874 193 47 14 90 27 95 28 64 14 492 175 615
231 30 13 71 32 90 40 82 36 349 167 347 170 -2 1 -59 -20 -128 -47 -256 -104
-754 -261 -939 -296 -14 -3 -63 -14 -110 -24 -47 -11 -96 -21 -110 -24 -14 -2
-63 -11 -110 -20 -47 -8 -102 -18 -124 -20 -21 -3 -55 -8 -75 -10 -148 -20
-200 -26 -292 -33 -200 -15 -540 -9 -689 13 -626 91 -972 383 -971 819 1 270
158 600 440 925 35 41 71 81 80 87 8 7 13 15 10 17 -2 2 -56 -42 -119 -99z"/>
</g>
</svg>
